<svg width="660" height="450" viewBox="0 0 66 45" version="1.1" xmlns="http://www.w3.org/2000/svg" xmlns:xlink="http://www.w3.org/1999/xlink"><!-- Generator: Sketch 3.8.2 (29753) - http://www.bohemiancoding.com/sketch --><title>snuffie copy</title><desc>Created with Sketch.</desc><defs></defs><g id="Verstoppertje" stroke="none" stroke-width="1" fill="none" fill-rule="evenodd"><g id="Artboard" transform="translate(-90.000000, -81.000000)"><g id="snuffie-copy" transform="translate(90.000000, 81.000000)"><g id="romp" transform="translate(0.300000, 14.662088)"><path d="M44.175,13.1291209 C45.0128906,13.507791 45.1795573,13.4088899 44.675,12.8324176 L33.375,5.39010989 L33.35,5.39010989 L33.075,6.08241758 L32.95,6.15659341 L32.75,5.90934066 C28.6709635,3.62952867 26.5626302,2.48392428 26.425,2.47252747 C26.3583333,2.45604396 26.2666667,2.40659341 26.15,2.32417582 C26.0333333,2.25824176 25.9333333,2.21703297 25.85,2.20054945 C25.55,2.23351648 25.3416667,2.24175824 25.225,2.22527473 C25.1583333,2.22527473 25.075,2.18406593 24.975,2.10164835 C24.875,2.01923077 24.7916667,1.97802198 24.725,1.97802198 L22.125,1.70604396 C21.6916667,1.70604396 21.4333333,1.6978022 21.35,1.68131868 C21.0333333,1.5989011 20.7916667,1.56593407 20.625,1.58241758 C19.8083333,1.51648352 19.2,1.50824176 18.8,1.55769231 C18.4833333,1.62362637 18.2333333,1.67307692 18.05,1.70604396 C17.75,1.75549451 17.5083333,1.73076923 17.325,1.63186813 C17.2583333,1.5989011 17.1583333,1.59065934 17.025,1.60714286 C16.875,1.62362637 16.7666667,1.63186813 16.7,1.63186813 C16.5166667,1.5989011 16.375,1.58241758 16.275,1.58241758 C16.1083333,1.56593407 15.9666667,1.57417582 15.85,1.60714286 C15.6833333,1.67307692 15.4666667,1.70604396 15.2,1.70604396 C14.9166667,1.68956044 14.7,1.68131868 14.55,1.68131868 C14.4666667,1.68131868 14.375,1.70604396 14.275,1.75549451 C14.1416667,1.82142857 14.0583333,1.8543956 14.025,1.8543956 C13.9177083,1.88974502 13.7677083,1.9144703 13.575,1.92857143 L13.575,4.92032967 L8.35,4.92032967 C8.45,5.16758242 8.44166667,5.3489011 8.325,5.46428571 C8.225,5.59615385 8.075,5.77747253 7.875,6.00824176 C7.775,6.17307692 7.65,6.42857143 7.5,6.77472527 C7.41666667,6.92307692 7.28333333,7.12087912 7.1,7.36813187 C7,7.71428571 6.83333333,7.94505495 6.6,8.06043956 C6.51666667,8.10989011 6.48333333,8.18406593 6.5,8.28296703 C6.53333333,8.4478022 6.54166667,8.5467033 6.525,8.57967033 C6.45833333,8.79395604 6.30833333,9 6.075,9.1978022 C6.025,9.26373626 5.98333333,9.36263736 5.95,9.49450549 L5.775,9.66758242 C5.74166667,9.70054945 5.65,9.87362637 5.5,10.1868132 L5.075,11.0769231 C5.00833333,11.2417582 4.88333333,11.4725275 4.7,11.7692308 C4.65,11.8681319 4.48333333,12.1318681 4.2,12.5604396 C3.98333333,12.8736264 3.84166667,13.1538462 3.775,13.4010989 C3.70833333,13.6153846 3.54166667,13.8956044 3.275,14.2417582 C2.99166667,14.6043956 2.81666667,14.8681319 2.75,15.032967 C2.68333333,15.2142857 2.6,15.4862637 2.5,15.8489011 C2.25,16.2774725 2.10833333,16.5247253 2.075,16.5906593 C1.99166667,16.7884615 1.9,17.1016484 1.8,17.5302198 C1.73333333,17.6950549 1.625,17.9423077 1.475,18.271978 L1.225,18.9395604 C1.15833333,19.1373626 1.14166667,19.4175824 1.175,19.7802198 C1.175,20.1428571 1.2,20.3736264 1.25,20.4725275 C1.36666667,20.7197802 1.54166667,20.9587912 1.775,21.1895604 C2.85833333,22.2445055 3.93333333,22.8461538 5,22.9945055 C5.6,23.0934066 6.25,22.9945055 6.95,22.6978022 C7.15,22.6318681 7.44166667,22.5082418 7.825,22.3269231 C8.30833333,22.1785714 8.6,22.0467033 8.7,21.9313187 C8.76666667,21.8818681 8.89166667,21.8159341 9.075,21.7335165 C9.25833333,21.6510989 9.39166667,21.5769231 9.475,21.510989 C9.50833333,21.478022 9.78333333,21.3131868 10.3,21.0164835 C10.4,20.967033 10.9583333,20.5961538 11.975,19.9038462 C12.4583333,19.6071429 12.9166667,19.4917582 13.35,19.5576923 C13.4666667,19.5741758 13.8166667,19.6401099 14.4,19.7554945 C14.8166667,19.8214286 15.1666667,19.8626374 15.45,19.8791209 C15.8833333,19.8791209 16.525,20.010989 17.375,20.2747253 L19.5,20.7197802 C19.7166667,20.7527473 20.0416667,20.8269231 20.475,20.9423077 L21.025,21.0659341 C21.075,21.0824176 21.175,21.1318681 21.325,21.2142857 C21.4083333,21.2307692 21.5166667,21.2225275 21.65,21.1895604 L23.175,21.4862637 C23.625,21.5192308 24.2666667,21.7005495 25.1,22.0302198 C25.1833333,22.0467033 25.3166667,22.0631868 25.5,22.0796703 C25.6666667,22.0796703 25.7916667,22.0961538 25.875,22.1291209 C26.0916667,22.228022 26.45,22.3351648 26.95,22.4505495 C27.1666667,22.5164835 27.5083333,22.5906593 27.975,22.6730769 C28.425,22.739011 28.7583333,22.8131868 28.975,22.8956044 C29.0083333,22.9120879 29.3583333,23.0027473 30.025,23.1675824 C30.4416667,23.2664835 30.775,23.3736264 31.025,23.489011 C31.0583333,23.5054945 31.2416667,23.5549451 31.575,23.6373626 L32.125,23.8351648 C32.8083333,23.9835165 33.3583333,24.1565934 33.775,24.3543956 C33.825,24.3708791 33.9833333,24.4203297 34.25,24.5027473 C34.45,24.5521978 34.6,24.6263736 34.7,24.7252747 C34.85,24.8736264 35.2083333,25.1043956 35.775,25.4175824 C37.075,26.1263736 37.95,26.6126374 38.4,26.8763736 C39.5666667,27.6016484 40.3833333,28.0549451 40.85,28.2362637 C40.8666667,28.2527473 41.0333333,28.3434066 41.35,28.5082418 C41.55,28.6071429 41.725,28.6648352 41.875,28.6813187 C42.025,28.7142857 42.2333333,28.7637363 42.5,28.8296703 C42.7333333,28.8791209 42.9416667,28.8873626 43.125,28.8543956 C43.575,28.9368132 44.1083333,28.771978 44.725,28.3598901 C44.9416667,28.2115385 45.1416667,27.989011 45.325,27.6923077 C45.6083333,27.3956044 45.7916667,27.1483516 45.875,26.9505495 C46.025,26.6868132 46.1166667,26.3736264 46.15,26.010989 C46.15,25.5824176 46.1666667,25.2527473 46.2,25.021978 C46.2166667,24.9395604 46.2,24.8159341 46.15,24.6510989 C46.05,24.4038462 46,24.271978 46,24.2554945 C45.8333333,23.8434066 45.7166667,23.5384615 45.65,23.3406593 C45.2166667,22.1208791 44.55,20.9423077 43.65,19.8049451 L43.375,19.4093407 C43.375,19.2774725 43.35,19.1868132 43.3,19.1373626 C43.15,19.0549451 43.0416667,18.9725275 42.975,18.8901099 C42.9060547,18.7820012 42.4810547,18.3369463 41.7,17.5549451 L38.5,14.5879121 L38.9,14.8104396 C37.4401042,13.3727679 37.3067708,13.2161745 38.5,14.3406593 C38.7290365,14.5482486 38.9457031,14.7460508 39.15,14.9340659 L39.925,13.9450549 C42.3326172,16.2797905 43.5909505,17.5490213 43.7,17.7527473 C43.85,18.0494505 44.1416667,18.4697802 44.575,19.0137363 C45.0083333,19.5247253 45.3,19.9450549 45.45,20.2747253 C45.4833333,20.3406593 45.55,20.4148352 45.65,20.4972527 C45.75,20.5796703 45.8083333,20.6538462 45.825,20.7197802 C45.9583333,21.1483516 46.0333333,21.3791209 46.05,21.4120879 C46.0833333,21.478022 46.2166667,21.6593407 46.45,21.956044 C46.6166667,22.1868132 46.7083333,22.3928571 46.725,22.5741758 C46.725,22.739011 46.8083333,22.9450549 46.975,23.1923077 C46.9916667,23.2747253 46.9916667,23.3818681 46.975,23.5137363 L47.125,23.8104396 C47.1416667,23.8598901 47.175,24.0824176 47.225,24.478022 C47.3083333,24.8076923 47.4416667,24.8818681 47.625,24.7005495 C48.1916667,24.6346154 48.7083333,24.4120879 49.175,24.032967 C49.6416667,23.6538462 49.975,23.2005495 50.175,22.6730769 C50.4083333,22.1126374 50.5,21.6428571 50.45,21.2637363 C50.35,20.9505495 50.2916667,20.7115385 50.275,20.5467033 C50.2416667,20.1840659 50.1833333,19.9120879 50.1,19.7307692 C49.7833333,18.9725275 49.5666667,18.5192308 49.45,18.3708791 C49.1184245,17.7959521 48.2184245,16.8151829 46.75,15.4285714 C46.059375,14.7747682 45.2010417,14.0082847 44.175,13.1291209 L44.175,13.1291209 Z M12.25,20.967033 C12.2,21.0659341 12.0583333,21.1483516 11.825,21.2142857 C11.775,21.2637363 11.5416667,21.4120879 11.125,21.6593407 C10.7583333,21.9065934 10.65,22.0796703 10.8,22.1785714 C10.9833333,22.2774725 11.2416667,22.3434066 11.575,22.3763736 C11.925,22.4093407 12.1916667,22.3846154 12.375,22.3021978 C12.5416667,22.2527473 12.8,22.2032967 13.15,22.1538462 C13.3833333,22.0714286 13.65,21.9478022 13.95,21.782967 C14.8833333,21.206044 15.3416667,20.9093407 15.325,20.8928571 C14.9583333,20.8928571 14.75,20.8846154 14.7,20.8681319 C14.2,20.6703297 13.85,20.5961538 13.65,20.6456044 C13.1666667,20.6456044 12.8166667,20.6868132 12.6,20.7692308 C12.45,20.8021978 12.3333333,20.8681319 12.25,20.967033 L12.25,20.967033 Z" id="Shape" stroke="#864E2E" stroke-width="0.5" fill="#864E2E"></path><path d="M27.45,1.28571429 C26.1491536,1.05481628 25.457487,0.931189904 25.375,0.914835165 L24.325,0.815934066 C23.7083333,0.684065934 23.3666667,0.618131868 23.3,0.618131868 C22.7833333,0.601648352 21.9916667,0.527472527 20.925,0.395604396 C20.425,0.32967033 19.675,0.313186813 18.675,0.346153846 C18.1583333,0.32967033 17.7666667,0.313186813 17.5,0.296703297 C17.0166667,0.296703297 16.6166667,0.32967033 16.3,0.395604396 C15.4666667,0.412087912 14.85,0.46978022 14.45,0.568681319 C14.0166667,0.684065934 13.7833333,0.741758242 13.75,0.741758242 C13.6858073,0.741758242 13.627474,0.725274725 13.575,0.692307692 L13.575,1.92857143 C13.7677083,1.9144703 13.9177083,1.88974502 14.025,1.8543956 C14.0583333,1.8543956 14.1416667,1.82142857 14.275,1.75549451 C14.375,1.70604396 14.4666667,1.68131868 14.55,1.68131868 C14.7,1.68131868 14.9166667,1.68956044 15.2,1.70604396 C15.4666667,1.70604396 15.6833333,1.67307692 15.85,1.60714286 C15.9666667,1.57417582 16.1083333,1.56593407 16.275,1.58241758 C16.375,1.58241758 16.5166667,1.5989011 16.7,1.63186813 C16.7666667,1.63186813 16.875,1.62362637 17.025,1.60714286 C17.1583333,1.59065934 17.2583333,1.5989011 17.325,1.63186813 C17.5083333,1.73076923 17.75,1.75549451 18.05,1.70604396 C18.2333333,1.67307692 18.4833333,1.62362637 18.8,1.55769231 C19.2,1.50824176 19.8083333,1.51648352 20.625,1.58241758 C20.7916667,1.56593407 21.0333333,1.5989011 21.35,1.68131868 C21.4333333,1.6978022 21.6916667,1.70604396 22.125,1.70604396 L24.725,1.97802198 C24.7916667,1.97802198 24.875,2.01923077 24.975,2.10164835 C25.075,2.18406593 25.1583333,2.22527473 25.225,2.22527473 C25.3416667,2.24175824 25.55,2.23351648 25.85,2.20054945 C25.9333333,2.21703297 26.0333333,2.25824176 26.15,2.32417582 C26.2666667,2.40659341 26.3583333,2.45604396 26.425,2.47252747 C26.5626302,2.48392428 28.6709635,3.62952867 32.75,5.90934066 C32.8606771,5.96561641 32.9690104,6.02330872 33.075,6.08241758 L33.35,5.39010989 L33.375,5.39010989 L33.525,5.34065934 L33.925,4.74725275 C30.9273438,2.68713513 28.7690104,1.53328898 27.45,1.28571429 L27.45,1.28571429 Z M51.475,21.8324176 C51.5416667,21.4532967 51.55,21.1071429 51.5,20.793956 C51.5,20.4807692 51.4833333,20.2417582 51.45,20.0769231 L51.3,19.706044 C51.2666667,19.6565934 51.25,19.5659341 51.25,19.4340659 C51.2333333,19.3186813 51.2,19.228022 51.15,19.1620879 C51,18.9642857 50.9,18.7994505 50.85,18.6675824 C50.7833333,18.3543956 50.7083333,18.1236264 50.625,17.9752747 C50.4916667,17.8434066 50.4083333,17.7197802 50.375,17.6043956 C50.3416667,17.4395604 50.275,17.3489011 50.175,17.3324176 C50.1083333,17.3159341 50.0666667,17.2664835 50.05,17.1840659 C50.0333333,17.0851648 50.0166667,17.010989 50,16.9615385 C49.8,16.6648352 49.6583333,16.4340659 49.575,16.2692308 C49.5057943,16.1127018 48.0974609,14.8269875 45.35,12.4120879 C45.9317057,13.1212011 45.7067057,13.261311 44.675,12.8324176 C45.1795573,13.4088899 45.0128906,13.507791 44.175,13.1291209 C45.2010417,14.0082847 46.059375,14.7747682 46.75,15.4285714 C48.2184245,16.8151829 49.1184245,17.7959521 49.45,18.3708791 C49.5666667,18.5192308 49.7833333,18.9725275 50.1,19.7307692 C50.1833333,19.9120879 50.2416667,20.1840659 50.275,20.5467033 C50.2916667,20.7115385 50.35,20.9505495 50.45,21.2637363 C50.5,21.6428571 50.4083333,22.1126374 50.175,22.6730769 C49.975,23.2005495 49.6416667,23.6538462 49.175,24.032967 C48.7083333,24.4120879 48.1916667,24.6346154 47.625,24.7005495 C47.4416667,24.8818681 47.3083333,24.8076923 47.225,24.478022 C47.175,24.0824176 47.1416667,23.8598901 47.125,23.8104396 L46.975,23.5137363 C46.9916667,23.3818681 46.9916667,23.2747253 46.975,23.1923077 C46.8083333,22.9450549 46.725,22.739011 46.725,22.5741758 C46.7083333,22.3928571 46.6166667,22.1868132 46.45,21.956044 C46.2166667,21.6593407 46.0833333,21.478022 46.05,21.4120879 C46.0333333,21.3791209 45.9583333,21.1483516 45.825,20.7197802 C45.8083333,20.6538462 45.75,20.5796703 45.65,20.4972527 C45.55,20.4148352 45.4833333,20.3406593 45.45,20.2747253 C45.3,19.9450549 45.0083333,19.5247253 44.575,19.0137363 C44.1416667,18.4697802 43.85,18.0494505 43.7,17.7527473 C43.5909505,17.5490213 42.3326172,16.2797905 39.925,13.9450549 L39.15,14.9340659 C38.9457031,14.7460508 38.7290365,14.5482486 38.5,14.3406593 C37.3067708,13.2161745 37.4401042,13.3727679 38.9,14.8104396 L38.5,14.5879121 L41.7,17.5549451 C42.4810547,18.3369463 42.9060547,18.7820012 42.975,18.8901099 C43.0416667,18.9725275 43.15,19.0549451 43.3,19.1373626 C43.35,19.1868132 43.375,19.2774725 43.375,19.4093407 L43.65,19.8049451 C44.55,20.9423077 45.2166667,22.1208791 45.65,23.3406593 C45.7166667,23.5384615 45.8333333,23.8434066 46,24.2554945 C46,24.271978 46.05,24.4038462 46.15,24.6510989 C46.2,24.8159341 46.2166667,24.9395604 46.2,25.021978 C46.1666667,25.2527473 46.15,25.5824176 46.15,26.010989 C46.1166667,26.3736264 46.025,26.6868132 45.875,26.9505495 C45.7916667,27.1483516 45.6083333,27.3956044 45.325,27.6923077 C45.1416667,27.989011 44.9416667,28.2115385 44.725,28.3598901 C44.1083333,28.771978 43.575,28.9368132 43.125,28.8543956 C42.9416667,28.8873626 42.7333333,28.8791209 42.5,28.8296703 C42.2333333,28.7637363 42.025,28.7142857 41.875,28.6813187 C41.725,28.6648352 41.55,28.6071429 41.35,28.5082418 C41.0333333,28.3434066 40.8666667,28.2527473 40.85,28.2362637 C40.3833333,28.0549451 39.5666667,27.6016484 38.4,26.8763736 C37.95,26.6126374 37.075,26.1263736 35.775,25.4175824 C35.2083333,25.1043956 34.85,24.8736264 34.7,24.7252747 C34.6,24.6263736 34.45,24.5521978 34.25,24.5027473 C33.9833333,24.4203297 33.825,24.3708791 33.775,24.3543956 C33.3583333,24.1565934 32.8083333,23.9835165 32.125,23.8351648 L31.575,23.6373626 C31.2416667,23.5549451 31.0583333,23.5054945 31.025,23.489011 C30.775,23.3736264 30.4416667,23.2664835 30.025,23.1675824 C29.3583333,23.0027473 29.0083333,22.9120879 28.975,22.8956044 C28.7583333,22.8131868 28.425,22.739011 27.975,22.6730769 C27.5083333,22.5906593 27.1666667,22.5164835 26.95,22.4505495 C26.45,22.3351648 26.0916667,22.228022 25.875,22.1291209 C25.7916667,22.0961538 25.6666667,22.0796703 25.5,22.0796703 C25.3166667,22.0631868 25.1833333,22.0467033 25.1,22.0302198 C24.2666667,21.7005495 23.625,21.5192308 23.175,21.4862637 L21.65,21.1895604 C21.5166667,21.2225275 21.4083333,21.2307692 21.325,21.2142857 C21.175,21.1318681 21.075,21.0824176 21.025,21.0659341 L20.475,20.9423077 C20.0416667,20.8269231 19.7166667,20.7527473 19.5,20.7197802 L17.375,20.2747253 C16.525,20.010989 15.8833333,19.8791209 15.45,19.8791209 C15.1666667,19.8626374 14.8166667,19.8214286 14.4,19.7554945 C13.8166667,19.6401099 13.4666667,19.5741758 13.35,19.5576923 C12.9166667,19.4917582 12.4583333,19.6071429 11.975,19.9038462 C10.9583333,20.5961538 10.4,20.967033 10.3,21.0164835 C9.78333333,21.3131868 9.50833333,21.478022 9.475,21.510989 C9.39166667,21.5769231 9.25833333,21.6510989 9.075,21.7335165 C8.89166667,21.8159341 8.76666667,21.8818681 8.7,21.9313187 C8.6,22.0467033 8.30833333,22.1785714 7.825,22.3269231 C7.44166667,22.5082418 7.15,22.6318681 6.95,22.6978022 C6.25,22.9945055 5.6,23.0934066 5,22.9945055 C3.93333333,22.8461538 2.85833333,22.2445055 1.775,21.1895604 C1.54166667,20.9587912 1.36666667,20.7197802 1.25,20.4725275 C1.2,20.3736264 1.175,20.1428571 1.175,19.7802198 C1.14166667,19.4175824 1.15833333,19.1373626 1.225,18.9395604 L1.475,18.271978 C1.625,17.9423077 1.73333333,17.6950549 1.8,17.5302198 C1.9,17.1016484 1.99166667,16.7884615 2.075,16.5906593 C2.10833333,16.5247253 2.25,16.2774725 2.5,15.8489011 C2.6,15.4862637 2.68333333,15.2142857 2.75,15.032967 C2.81666667,14.8681319 2.99166667,14.6043956 3.275,14.2417582 C3.54166667,13.8956044 3.70833333,13.6153846 3.775,13.4010989 C3.84166667,13.1538462 3.98333333,12.8736264 4.2,12.5604396 C4.48333333,12.1318681 4.65,11.8681319 4.7,11.7692308 C4.88333333,11.4725275 5.00833333,11.2417582 5.075,11.0769231 L5.5,10.1868132 C5.65,9.87362637 5.74166667,9.70054945 5.775,9.66758242 L5.95,9.49450549 C5.98333333,9.36263736 6.025,9.26373626 6.075,9.1978022 C6.30833333,9 6.45833333,8.79395604 6.525,8.57967033 C6.54166667,8.5467033 6.53333333,8.4478022 6.5,8.28296703 C6.48333333,8.18406593 6.51666667,8.10989011 6.6,8.06043956 C6.83333333,7.94505495 7,7.71428571 7.1,7.36813187 C7.28333333,7.12087912 7.41666667,6.92307692 7.5,6.77472527 C7.65,6.42857143 7.775,6.17307692 7.875,6.00824176 C8.075,5.77747253 8.225,5.59615385 8.325,5.46428571 C8.44166667,5.3489011 8.45,5.16758242 8.35,4.92032967 L7.2,4.92032967 C7.12923177,5.08464973 6.97089844,5.31541896 6.725,5.61263736 L6.225,6.50274725 C5.99166667,6.91483516 5.63333333,7.54120879 5.15,8.38186813 C4.81666667,9.05769231 4.49166667,9.63461538 4.175,10.1126374 C3.70833333,10.8214286 3.41666667,11.3653846 3.3,11.7445055 C3.23333333,11.9423077 3.08333333,12.206044 2.85,12.5357143 C2.81666667,12.6346154 2.65833333,12.8818681 2.375,13.2774725 C2.25833333,13.4752747 2.15833333,13.706044 2.075,13.9697802 C2.075,14.0357143 2.00833333,14.1181319 1.875,14.217033 L1.725,14.5879121 C1.475,14.9835165 1.35,15.271978 1.35,15.4532967 C1.33333333,15.5686813 1.225,15.7252747 1.025,15.9230769 C0.808333333,16.2857143 0.575,16.8873626 0.325,17.728022 C-0.175,19.2774725 -0.0833333333,20.5714286 0.6,21.6098901 C0.933333333,22.1043956 1.39166667,22.5659341 1.975,22.9945055 C2.10833333,23.0769231 2.31666667,23.1675824 2.6,23.2664835 C2.75,23.3818681 2.93333333,23.4725275 3.15,23.5384615 C3.25,23.5714286 3.36666667,23.6538462 3.5,23.7857143 C3.56666667,23.8351648 3.675,23.8681319 3.825,23.8846154 C3.975,23.9340659 4.19166667,23.967033 4.475,23.9835165 C5.09166667,24.0989011 5.40833333,24.0989011 5.425,23.9835165 C5.525,24.1153846 5.7,24.1071429 5.95,23.9587912 C6.03333333,23.9093407 6.275,23.8846154 6.675,23.8846154 C7.025,23.8681319 7.50833333,23.7115385 8.125,23.4148352 C8.24166667,23.3818681 8.41666667,23.3406593 8.65,23.2912088 C8.76666667,23.2582418 8.88333333,23.1675824 9,23.0192308 C9.15,22.8873626 9.33333333,22.8791209 9.55,22.9945055 C9.68333333,23.043956 9.86666667,23.1346154 10.1,23.2664835 C10.2,23.2994505 10.3333333,23.3159341 10.5,23.3159341 C10.6833333,23.3159341 10.8166667,23.3241758 10.9,23.3406593 C11.2,23.4230769 11.4083333,23.4478022 11.525,23.4148352 C11.6083333,23.3818681 11.725,23.3818681 11.875,23.4148352 C12.025,23.4478022 12.1333333,23.456044 12.2,23.4395604 C12.2333333,23.4395604 12.2916667,23.4148352 12.375,23.3653846 C12.4416667,23.3324176 12.5083333,23.3241758 12.575,23.3406593 C13.275,23.4395604 14.0416667,23.1593407 14.875,22.5 L15.425,22.1043956 C15.475,22.0879121 15.525,22.0796703 15.575,22.0796703 C15.625,22.0631868 15.6583333,22.0302198 15.675,21.9807692 C15.7583333,21.8159341 15.975,21.6428571 16.325,21.4615385 C16.575,21.3461538 16.9,21.3131868 17.3,21.3626374 C17.5166667,21.3791209 17.8416667,21.4285714 18.275,21.510989 C18.6416667,21.543956 19.325,21.717033 20.325,22.0302198 C20.775,22.1785714 21.4833333,22.3351648 22.45,22.5 C23.1833333,22.6153846 23.9333333,22.8049451 24.7,23.0686813 C24.8333333,23.1181319 25.55,23.2747253 26.85,23.5384615 L29.25,24.1318681 C30.2833333,24.4285714 30.9666667,24.6510989 31.3,24.7994505 C31.6,24.9313187 32.0333333,25.0467033 32.6,25.1456044 C33.2,25.3269231 33.6583333,25.5164835 33.975,25.7142857 C34.1416667,25.8296703 34.4166667,25.9532967 34.8,26.0851648 C35.1,26.282967 35.2833333,26.3901099 35.35,26.4065934 C35.55,26.4725275 35.8,26.6208791 36.1,26.8516484 C36.55,27.0824176 36.7916667,27.206044 36.825,27.2225275 C37.225,27.4862637 37.8416667,27.8571429 38.675,28.3351648 C39.225,28.7472527 39.7916667,29.0192308 40.375,29.1510989 C40.4916667,29.1675824 40.625,29.2417582 40.775,29.3736264 C40.875,29.4230769 41.025,29.4642857 41.225,29.4972527 C41.425,29.5631868 41.7083333,29.6785714 42.075,29.8434066 L43.05,29.9175824 C43.1333333,29.9340659 43.2583333,29.9587912 43.425,29.9917582 C43.5916667,30.0082418 43.7166667,30 43.8,29.967033 C44.2666667,29.8021978 44.6,29.6620879 44.8,29.5467033 C45.2333333,29.3489011 45.55,29.1510989 45.75,28.9532967 C46.15,28.5576923 46.375,28.3186813 46.425,28.2362637 C46.6083333,27.989011 46.725,27.7994505 46.775,27.6675824 C46.8083333,27.4368132 46.8583333,27.2637363 46.925,27.1483516 C47.0583333,26.9505495 47.15,26.6703297 47.2,26.3076923 C47.2333333,26.1098901 47.3,25.9862637 47.4,25.9368132 C47.4,25.9203297 47.5333333,25.8708791 47.8,25.7884615 C48.8333333,25.4752747 49.5916667,25.1208791 50.075,24.7252747 C50.675,24.2802198 51.0583333,23.6538462 51.225,22.8461538 C51.3416667,22.3846154 51.425,22.0467033 51.475,21.8324176 L51.475,21.8324176 Z M11.825,21.2142857 C12.0583333,21.1483516 12.2,21.0659341 12.25,20.967033 C12.3333333,20.8681319 12.45,20.8021978 12.6,20.7692308 C12.8166667,20.6868132 13.1666667,20.6456044 13.65,20.6456044 C13.85,20.5961538 14.2,20.6703297 14.7,20.8681319 C14.75,20.8846154 14.9583333,20.8928571 15.325,20.8928571 C15.3416667,20.9093407 14.8833333,21.206044 13.95,21.782967 C13.65,21.9478022 13.3833333,22.0714286 13.15,22.1538462 C12.8,22.2032967 12.5416667,22.2527473 12.375,22.3021978 C12.1916667,22.3846154 11.925,22.4093407 11.575,22.3763736 C11.2416667,22.3434066 10.9833333,22.2774725 10.8,22.1785714 C10.65,22.0796703 10.7583333,21.9065934 11.125,21.6593407 C11.5416667,21.4120879 11.775,21.2637363 11.825,21.2142857 L11.825,21.2142857 Z" id="Shape" fill="#000000"></path></g><g id="staart" transform="translate(7.075000, 12.659341)"><path d="M1.975,2.1510989 C1.84166667,2.29945055 1.73333333,2.53846154 1.65,2.86813187 C1.55,3.21428571 1.45833333,3.4532967 1.375,3.58516484 C1.44166667,3.63461538 1.45833333,3.73351648 1.425,3.88186813 C1.40833333,3.96428571 1.375,4.06318681 1.325,4.17857143 L1.25,4.74725275 C1.23333333,4.81318681 1.25,4.92032967 1.3,5.06868132 C1.35,5.21703297 1.36666667,5.32417582 1.35,5.39010989 C1.35,5.81868132 1.4,6.13186813 1.5,6.32967033 C1.53333333,6.41208791 1.55,6.51923077 1.55,6.6510989 C1.55,6.78296703 1.53333333,7.12912088 1.5,7.68956044 C5.56022135,10.3383199 7.74355469,10.1487594 8.05,7.12087912 L7.8,3.70879121 C7.05,3.85714286 6.63333333,3.93131868 6.55,3.93131868 C6.06666667,3.93131868 5.75833333,3.78296703 5.625,3.48626374 C5.55833333,3.3543956 5.525,3.14010989 5.525,2.84340659 C5.525,2.74450549 5.46666667,2.43131868 5.35,1.90384615 C5.33333333,1.80494505 5.225,1.68131868 5.025,1.53296703 C4.825,1.38461538 4.66666667,1.29395604 4.55,1.26098901 C3.88333333,1.06318681 3.34166667,1.07142857 2.925,1.28571429 C2.65833333,1.43406593 2.34166667,1.72252747 1.975,2.1510989 L1.975,2.1510989 Z" id="Shape" fill="#864E2E"></path><path d="M1.65,2.86813187 C1.73333333,2.53846154 1.84166667,2.29945055 1.975,2.1510989 C2.34166667,1.72252747 2.65833333,1.43406593 2.925,1.28571429 C3.34166667,1.07142857 3.88333333,1.06318681 4.55,1.26098901 C4.66666667,1.29395604 4.825,1.38461538 5.025,1.53296703 C5.225,1.68131868 5.33333333,1.80494505 5.35,1.90384615 C5.46666667,2.43131868 5.525,2.74450549 5.525,2.84340659 C5.525,3.14010989 5.55833333,3.3543956 5.625,3.48626374 C5.75833333,3.78296703 6.06666667,3.93131868 6.55,3.93131868 C6.63333333,3.93131868 7.05,3.85714286 7.8,3.70879121 L7.425,2.81868132 C6.89166667,2.68681319 6.59166667,2.52197802 6.525,2.32417582 C6.325,1.5989011 6.10833333,1.12087912 5.875,0.89010989 C5.84166667,0.840659341 5.76666667,0.791208791 5.65,0.741758242 C5.53333333,0.692307692 5.45,0.642857143 5.4,0.593406593 C5.3,0.494505495 5.19166667,0.42032967 5.075,0.370879121 C4.925,0.288461538 4.66666667,0.197802198 4.3,0.0989010989 C3.75,-0.032967033 3.15833333,0.032967033 2.525,0.296703297 C1.825,0.626373626 1.38333333,1.01373626 1.2,1.45879121 C1.13333333,1.62362637 0.991666667,1.84615385 0.775,2.12637363 C0.725,2.25824176 0.691666667,2.43131868 0.675,2.6456044 C0.658333333,2.67857143 0.625,2.68681319 0.575,2.67032967 C0.541666667,2.67032967 0.516666667,2.72802198 0.5,2.84340659 C0.466666667,3.09065934 0.4,3.44505495 0.3,3.90659341 C0.233333333,4.3021978 0.208333333,4.65659341 0.225,4.96978022 C0.275,5.51373626 0.308333333,5.83516484 0.325,5.93406593 C0.475,6.36263736 0.525,6.65934066 0.475,6.82417582 C0.458333333,6.85714286 0.425,7.0467033 0.375,7.39285714 L1.5,7.68956044 C1.53333333,7.12912088 1.55,6.78296703 1.55,6.6510989 C1.55,6.51923077 1.53333333,6.41208791 1.5,6.32967033 C1.4,6.13186813 1.35,5.81868132 1.35,5.39010989 C1.36666667,5.32417582 1.35,5.21703297 1.3,5.06868132 C1.25,4.92032967 1.23333333,4.81318681 1.25,4.74725275 L1.325,4.17857143 C1.375,4.06318681 1.40833333,3.96428571 1.425,3.88186813 C1.45833333,3.73351648 1.44166667,3.63461538 1.375,3.58516484 C1.45833333,3.4532967 1.55,3.21428571 1.65,2.86813187 L1.65,2.86813187 Z" id="Shape" fill="#000000"></path></g><g id="hoofd" transform="translate(27.200000, 0.890110)"><path d="M17.875,1.60714286 C17.575,1.47527473 17.3416667,1.42582418 17.175,1.45879121 C17.075,1.47527473 16.925,1.45879121 16.725,1.40934066 C16.5583333,1.35989011 16.425,1.34340659 16.325,1.35989011 C16.1916667,1.32692308 16.0833333,1.34340659 16,1.40934066 C15.95,1.47527473 15.8166667,1.52472527 15.6,1.55769231 C15.5333333,1.55769231 15.3,1.51648352 14.9,1.43406593 C14.8333333,1.41758242 14.7666667,1.42582418 14.7,1.45879121 C14.6,1.49175824 14.5333333,1.50824176 14.5,1.50824176 C14.2666667,1.50824176 14.1,1.51648352 14,1.53296703 C13.5666667,1.54945055 13.2333333,1.56593407 13,1.58241758 C12.75,1.58241758 12.4083333,1.70604396 11.975,1.9532967 C11.6916667,2.10164835 11.1833333,2.27472527 10.45,2.47252747 C10.320638,2.5358216 9.92897135,2.6347227 9.275,2.76923077 C9.24010417,2.77972613 9.1984375,2.78796789 9.15,2.79395604 C9.11796875,2.80786401 9.08463542,2.81610577 9.05,2.81868132 C8.97161458,2.84585337 8.86328125,2.94475446 8.725,3.11538462 C8.70878906,2.99330357 8.67545573,3.04275412 8.625,3.26373626 C8.5563151,3.17410714 8.52298177,3.10817308 8.525,3.06593407 C8.51158854,3.0777172 8.49492187,3.08595896 8.475,3.09065934 C8.47109375,3.09664749 8.46276042,3.09664749 8.45,3.09065934 C8.21315104,3.21943681 7.97981771,3.34306319 7.75,3.46153846 C4.4202474,5.2585637 2.5202474,7.33548678 2.05,9.69230769 C2.09335937,10.4161659 2.15169271,10.7211109 2.225,10.6071429 L1.925,12.0906593 C1.89166667,12.206044 1.85833333,12.3379121 1.825,12.4862637 C1.79166667,12.6181319 1.78333333,12.8159341 1.8,13.0796703 C1.68333333,13.5412088 1.625,13.8131868 1.625,13.8956044 C1.625,14.0604396 1.54166667,14.2747253 1.375,14.5384615 C1.325,14.7032967 1.33333333,14.9835165 1.4,15.3791209 C1.36666667,15.6263736 1.36666667,15.8159341 1.4,15.9478022 C1.46666667,16.1126374 1.49166667,16.2527473 1.475,16.3681319 C1.44166667,16.467033 1.39166667,16.5989011 1.325,16.7637363 C1.325,17.5879121 1.375,18.1236264 1.475,18.3708791 C1.50833333,18.4368132 1.51666667,18.543956 1.5,18.6923077 C1.48333333,18.8406593 1.48333333,18.9478022 1.5,19.0137363 L1.55,19.5824176 C1.55,19.6813187 1.64166667,19.9368132 1.825,20.3489011 C2.04166667,20.9258242 2.175,21.271978 2.225,21.3873626 C2.25833333,21.4697802 2.3,21.5934066 2.35,21.7582418 C2.4,21.956044 2.40833333,22.0796703 2.375,22.1291209 C2.34166667,22.1620879 2.36666667,22.2445055 2.45,22.3763736 C2.51666667,22.4423077 2.59166667,22.532967 2.675,22.6483516 C3.125,23.6538462 3.45,24.2884615 3.65,24.5521978 C4.01666667,25.0796703 4.50833333,25.5989011 5.125,26.1098901 C5.425,26.3736264 5.99166667,26.8186813 6.825,27.4450549 C7.39166667,27.8901099 8.00833333,28.2692308 8.675,28.5824176 C8.90833333,28.6813187 9.25833333,28.8461538 9.725,29.0769231 L10.975,29.521978 C11.175,29.6043956 11.4833333,29.6868132 11.9,29.7692308 C12.1,29.8516484 12.5083333,29.9340659 13.125,30.0164835 C13.4416667,30.0494505 13.9083333,30.1071429 14.525,30.1895604 C15.075,30.239011 15.5333333,30.2472527 15.9,30.2142857 C16.2666667,30.2802198 16.9,30.2554945 17.8,30.1401099 C18.4,30.0412088 18.7166667,29.9917582 18.75,29.9917582 C19.0166667,29.9423077 19.3916667,29.8104396 19.875,29.5961538 C20.6916667,29.3489011 21.3,29.1181319 21.7,28.9038462 C22.3166667,28.6071429 22.8916667,28.2445055 23.425,27.8159341 C24.0416667,27.3543956 24.5,27 24.8,26.7527473 C25.3166667,26.3241758 25.725,25.9203297 26.025,25.5412088 C26.375,25.1126374 26.7416667,24.5686813 27.125,23.9093407 C27.5416667,23.1346154 27.85,22.5576923 28.05,22.1785714 C28.3166667,21.7664835 28.475,21.4862637 28.525,21.3379121 C28.625,20.9423077 28.7083333,20.6456044 28.775,20.4478022 C28.9416667,20.0357143 29.0666667,19.7225275 29.15,19.5082418 C29.3166667,19.1126374 29.4166667,18.782967 29.45,18.5192308 C29.4666667,18.4038462 29.525,18.1730769 29.625,17.8269231 C29.6083333,17.4642857 29.625,17.2005495 29.675,17.0357143 C29.7083333,16.9203297 29.7166667,16.8296703 29.7,16.7637363 C29.65,16.6813187 29.5666667,16.6318681 29.45,16.6153846 L29.6,16.4917582 C29.6307292,15.8327395 29.5557292,15.4041681 29.375,15.206044 C29.213737,15.0049579 29.2720703,15.0049579 29.55,15.206044 C28.9845703,11.5117402 27.6929036,8.76723472 25.675,6.97252747 C24.4485026,6.37422734 23.9735026,5.7890625 24.25,5.21703297 C24.15,5.36538462 24.0666667,5.51373626 24,5.66208791 C23.9666667,5.36538462 23.8583333,5.11813187 23.675,4.92032967 C23.6416667,4.88736264 23.5833333,4.8543956 23.5,4.82142857 C23.4666667,4.80494505 23.4333333,4.78846154 23.4,4.77197802 C23.3,4.72252747 23.225,4.64835165 23.175,4.54945055 C23.1416667,4.45054945 23.0833333,4.37637363 23,4.32692308 C22.8833333,4.26098901 22.8083333,4.2032967 22.775,4.15384615 C22.7083333,4.02197802 22.6583333,3.92307692 22.625,3.85714286 C22.575,3.75824176 22.5,3.68406593 22.4,3.63461538 C22.1,3.43681319 21.875,3.30494505 21.725,3.23901099 C21.1916667,3.00824176 20.7416667,2.71978022 20.375,2.37362637 C20.175,2.20879121 19.8583333,2.10989011 19.425,2.07692308 C19.325,2.07692308 19.1833333,2.02747253 19,1.92857143 C18.85,1.84615385 18.7083333,1.81318681 18.575,1.82967033 C18.425,1.82967033 18.1916667,1.75549451 17.875,1.60714286 L17.875,1.60714286 Z M20.675,15.75 C20.775,15.3049451 21,15.0082418 21.35,14.8598901 C21.7666667,14.6620879 22.1416667,14.7527473 22.475,15.1318681 C22.7583333,15.4450549 22.9,15.8241758 22.9,16.2692308 L22.825,17.010989 C22.825,17.0769231 22.7833333,17.1346154 22.7,17.1840659 C22.6333333,17.25 22.5916667,17.3076923 22.575,17.3571429 C22.5083333,17.521978 22.3916667,17.6703297 22.225,17.8021978 C22.0583333,17.9505495 21.8916667,18.032967 21.725,18.0494505 C21.3083333,18.2142857 20.95,18.0741758 20.65,17.6291209 C20.35,17.1840659 20.2916667,16.7802198 20.475,16.4175824 C20.4916667,16.4010989 20.4833333,16.3351648 20.45,16.2197802 C20.4333333,16.1373626 20.4583333,16.0961538 20.525,16.0961538 C20.575,16.0961538 20.625,15.9807692 20.675,15.75 L20.675,15.75 Z M16,20.7445055 C16.1,21.0082418 16.1583333,21.206044 16.175,21.3379121 C16.175,21.5027473 16.125,21.6923077 16.025,21.9065934 C15.7916667,22.3516484 15.4666667,22.5824176 15.05,22.5989011 C15.0666667,22.6318681 15.0166667,22.6648352 14.9,22.6978022 C14.7833333,22.7142857 14.7083333,22.7225275 14.675,22.7225275 C14.5916667,22.7554945 14.5416667,22.8379121 14.525,22.9697802 C14.525,23.1675824 14.5166667,23.2747253 14.5,23.2912088 C14.45,23.4230769 14.475,23.6703297 14.575,24.032967 C14.6083333,24.1318681 14.5916667,24.2554945 14.525,24.4038462 L14.575,24.6510989 C14.5916667,24.7335165 14.625,25.0054945 14.675,25.467033 C14.6916667,25.8131868 14.7416667,26.0851648 14.825,26.282967 C14.8416667,26.3159341 14.9,26.4642857 15,26.728022 C15.0833333,26.9752747 15.0916667,27.1153846 15.025,27.1483516 C14.8416667,27.2802198 14.625,27.2554945 14.375,27.0741758 C14.175,26.9258242 14.025,26.7362637 13.925,26.5054945 C13.875,26.4065934 13.7833333,26.010989 13.65,25.3186813 C13.65,25.2197802 13.6166667,25.0796703 13.55,24.8983516 C13.4833333,24.6675824 13.4166667,24.6263736 13.35,24.7747253 C13.15,25.2527473 12.9166667,25.5824176 12.65,25.7637363 C12.2666667,25.9945055 12.0416667,26.1510989 11.975,26.2335165 C11.875,26.3489011 11.7083333,26.456044 11.475,26.5549451 C11.2583333,26.6373626 11.0833333,26.6126374 10.95,26.4807692 C10.8166667,26.3324176 10.7833333,26.1510989 10.85,25.9368132 C10.9166667,25.7554945 11.075,25.5824176 11.325,25.4175824 C11.6416667,25.1868132 11.8333333,25.0302198 11.9,24.9478022 C12.3666667,24.5851648 12.6666667,24.271978 12.8,24.0082418 C13.1,23.6126374 13.2916667,23.282967 13.375,23.0192308 C13.4583333,22.8214286 13.475,22.6730769 13.425,22.5741758 C13.4083333,22.5247253 13.3166667,22.4010989 13.15,22.2032967 C12.8666667,21.8571429 12.7583333,21.4532967 12.825,20.9917582 C12.9083333,20.4807692 13.1666667,20.1675824 13.6,20.0521978 C14.9,19.739011 15.7,19.9697802 16,20.7445055 L16,20.7445055 Z M6.825,15.478022 C6.79166667,15.4285714 6.78333333,15.3543956 6.8,15.2554945 C6.83333333,15.1236264 6.85,15.0494505 6.85,15.032967 C6.88333333,14.6373626 6.925,14.3901099 6.975,14.2912088 C7.125,13.9945055 7.2,13.8296703 7.2,13.7967033 C7.23333333,13.5164835 7.46666667,13.3186813 7.9,13.2032967 C8.31666667,13.0879121 8.64166667,13.1785714 8.875,13.4752747 C9.075,13.739011 9.175,14.0769231 9.175,14.489011 C9.175,14.9175824 9.08333333,15.2967033 8.9,15.6263736 C8.68333333,16.0054945 8.38333333,16.2527473 8,16.3681319 C7.7,16.5989011 7.4,16.4423077 7.1,15.8983516 C6.91666667,15.6346154 6.825,15.4945055 6.825,15.478022 L6.825,15.478022 Z" id="Shape" stroke="#864E2E" stroke-width="0.5" fill="#864E2E"></path><path d="M30.4,15.0824176 C30.0474609,15.1140968 29.7641276,15.1553056 29.55,15.206044 C29.2720703,15.0049579 29.213737,15.0049579 29.375,15.206044 C29.5557292,15.4041681 29.6307292,15.8327395 29.6,16.4917582 L29.45,16.6153846 C29.5666667,16.6318681 29.65,16.6813187 29.7,16.7637363 C29.7166667,16.8296703 29.7083333,16.9203297 29.675,17.0357143 C29.625,17.2005495 29.6083333,17.4642857 29.625,17.8269231 C29.525,18.1730769 29.4666667,18.4038462 29.45,18.5192308 C29.4166667,18.782967 29.3166667,19.1126374 29.15,19.5082418 C29.0666667,19.7225275 28.9416667,20.0357143 28.775,20.4478022 C28.7083333,20.6456044 28.625,20.9423077 28.525,21.3379121 C28.475,21.4862637 28.3166667,21.7664835 28.05,22.1785714 C27.85,22.5576923 27.5416667,23.1346154 27.125,23.9093407 C26.7416667,24.5686813 26.375,25.1126374 26.025,25.5412088 C25.725,25.9203297 25.3166667,26.3241758 24.8,26.7527473 C24.5,27 24.0416667,27.3543956 23.425,27.8159341 C22.8916667,28.2445055 22.3166667,28.6071429 21.7,28.9038462 C21.3,29.1181319 20.6916667,29.3489011 19.875,29.5961538 C19.3916667,29.8104396 19.0166667,29.9423077 18.75,29.9917582 C18.7166667,29.9917582 18.4,30.0412088 17.8,30.1401099 C16.9,30.2554945 16.2666667,30.2802198 15.9,30.2142857 C15.5333333,30.2472527 15.075,30.239011 14.525,30.1895604 C13.9083333,30.1071429 13.4416667,30.0494505 13.125,30.0164835 C12.5083333,29.9340659 12.1,29.8516484 11.9,29.7692308 C11.4833333,29.6868132 11.175,29.6043956 10.975,29.521978 L9.725,29.0769231 C9.25833333,28.8461538 8.90833333,28.6813187 8.675,28.5824176 C8.00833333,28.2692308 7.39166667,27.8901099 6.825,27.4450549 C5.99166667,26.8186813 5.425,26.3736264 5.125,26.1098901 C4.50833333,25.5989011 4.01666667,25.0796703 3.65,24.5521978 C3.45,24.2884615 3.125,23.6538462 2.675,22.6483516 C2.59166667,22.532967 2.51666667,22.4423077 2.45,22.3763736 C2.36666667,22.2445055 2.34166667,22.1620879 2.375,22.1291209 C2.40833333,22.0796703 2.4,21.956044 2.35,21.7582418 C2.3,21.5934066 2.25833333,21.4697802 2.225,21.3873626 C2.175,21.271978 2.04166667,20.9258242 1.825,20.3489011 C1.64166667,19.9368132 1.55,19.6813187 1.55,19.5824176 L1.5,19.0137363 C1.48333333,18.9478022 1.48333333,18.8406593 1.5,18.6923077 C1.51666667,18.543956 1.50833333,18.4368132 1.475,18.3708791 C1.375,18.1236264 1.325,17.5879121 1.325,16.7637363 C1.39166667,16.5989011 1.44166667,16.467033 1.475,16.3681319 C1.49166667,16.2527473 1.46666667,16.1126374 1.4,15.9478022 C1.36666667,15.8159341 1.36666667,15.6263736 1.4,15.3791209 C1.33333333,14.9835165 1.325,14.7032967 1.375,14.5384615 C1.54166667,14.2747253 1.625,14.0604396 1.625,13.8956044 C1.625,13.8131868 1.68333333,13.5412088 1.8,13.0796703 C1.78333333,12.8159341 1.79166667,12.6181319 1.825,12.4862637 C1.85833333,12.3379121 1.89166667,12.206044 1.925,12.0906593 L2.225,10.6071429 C2.15169271,10.7211109 2.09335938,10.4161659 2.05,9.69230769 C1.75878906,9.98913977 1.47545573,10.0550738 1.2,9.89010989 C1,11.2252747 0.891666667,11.9175824 0.875,11.967033 L0.475,13.9203297 C0.458333333,14.0027473 0.441666667,14.1840659 0.425,14.4642857 C0.408333333,14.6950549 0.375,14.8681319 0.325,14.9835165 C0.311263021,15.0377962 0.269596354,15.6559281 0.2,16.8379121 C0.216666667,16.9862637 0.25,17.0769231 0.3,17.1098901 C0.183333333,17.1593407 0.15,17.3653846 0.2,17.728022 C0.233333333,17.9093407 0.275,18.1318681 0.325,18.3956044 L0.45,19.5082418 C0.466666667,19.6895604 0.558333333,19.9615385 0.725,20.3241758 C0.925,21.2637363 1.11666667,21.9478022 1.3,22.3763736 C1.31666667,22.4258242 1.36666667,22.6071429 1.45,22.9203297 C1.5,23.1675824 1.56666667,23.3406593 1.65,23.4395604 C1.75,23.5879121 1.85,23.8021978 1.95,24.0824176 C2.06666667,24.2472527 2.25833333,24.5027473 2.525,24.8489011 C2.55833333,24.8983516 2.63333333,24.9972527 2.75,25.1456044 C2.85,25.260989 2.90833333,25.3516484 2.925,25.4175824 C3.025,25.7307692 3.20833333,25.9450549 3.475,26.0604396 C3.64166667,26.1428571 3.75,26.2087912 3.8,26.2582418 C3.81666667,26.2747253 3.84166667,26.3324176 3.875,26.4313187 C3.89166667,26.4972527 3.925,26.5467033 3.975,26.5796703 C4.00833333,26.6126374 4.06666667,26.6373626 4.15,26.6538462 C4.2,26.6703297 4.24166667,26.7197802 4.275,26.8021978 C4.275,26.8186813 4.36666667,26.8928571 4.55,27.0247253 C4.66666667,27.1236264 4.81666667,27.2884615 5,27.5192308 C5.06666667,27.5851648 5.175,27.6510989 5.325,27.717033 C5.475,27.782967 5.58333333,27.8489011 5.65,27.9148352 C5.81666667,28.0961538 6.075,28.3021978 6.425,28.532967 C6.89166667,28.8626374 7.49166667,29.1923077 8.225,29.521978 C8.64166667,29.7197802 9.26666667,29.9917582 10.1,30.3379121 C10.8333333,30.6346154 11.5416667,30.8406593 12.225,30.956044 L13.2,31.1291209 C13.25,31.1291209 13.425,31.1373626 13.725,31.1538462 C13.9416667,31.1703297 14.1166667,31.2032967 14.25,31.2527473 C14.3333333,31.2857143 14.5,31.3104396 14.75,31.3269231 L14.8,31.3269231 L15.1,31.0796703 L16.775,31.1785714 C16.7916667,31.1456044 16.8333333,31.1373626 16.9,31.1538462 C17.1166667,31.1868132 17.3166667,31.1703297 17.5,31.1043956 C17.5833333,31.0714286 17.7,31.0714286 17.85,31.1043956 C18,31.1373626 18.1083333,31.1538462 18.175,31.1538462 C18.225,31.1373626 18.3166667,31.0961538 18.45,31.0302198 C18.55,30.9807692 18.65,30.9642857 18.75,30.9807692 C18.85,30.9972527 18.9833333,30.9807692 19.15,30.9313187 C19.3166667,30.8818681 19.45,30.8653846 19.55,30.8818681 C19.6333333,30.8983516 19.75,30.8571429 19.9,30.7582418 C20.05,30.6593407 20.1583333,30.6016484 20.225,30.5851648 C20.525,30.5192308 20.7583333,30.4945055 20.925,30.510989 C21.025,30.4285714 21.125,30.3461538 21.225,30.2637363 C21.6916667,29.9835165 22.1833333,29.7774725 22.7,29.6456044 C22.7666667,29.5796703 22.8666667,29.521978 23,29.4725275 C23.2333333,29.3901099 23.4833333,29.2335165 23.75,29.0027473 C24.05,28.739011 24.275,28.5412088 24.425,28.4093407 C24.8083333,28.2445055 25.0833333,28.0879121 25.25,27.9395604 C25.3333333,27.8901099 25.4166667,27.7912088 25.5,27.6428571 C25.5833333,27.510989 25.6583333,27.4120879 25.725,27.3461538 C25.8916667,27.2307692 26.0666667,27.0659341 26.25,26.8516484 C26.4833333,26.5549451 26.6333333,26.3736264 26.7,26.3076923 C26.8833333,25.978022 27.025,25.7802198 27.125,25.7142857 C27.2916667,25.6318681 27.5,25.4093407 27.75,25.0467033 C28.15,24.4697802 28.4583333,23.9752747 28.675,23.5631868 C29.425,22.260989 29.8833333,21.2472527 30.05,20.521978 C30.1666667,20.0934066 30.25,19.7637363 30.3,19.532967 C30.4,19.1538462 30.4583333,18.8241758 30.475,18.543956 C30.475,18.4120879 30.4833333,18.3049451 30.5,18.2225275 C30.5166667,18.0741758 30.5583333,17.9917582 30.625,17.9752747 C30.6740885,17.9573103 30.6990885,17.8089586 30.7,17.5302198 C30.7026042,17.2542497 30.7026042,17.0069969 30.7,16.7884615 C30.713151,16.5849287 30.613151,16.0162474 30.4,15.0824176 L30.4,15.0824176 Z M6.8,15.2554945 C6.78333333,15.3543956 6.79166667,15.4285714 6.825,15.478022 C6.825,15.4945055 6.91666667,15.6346154 7.1,15.8983516 C7.4,16.4423077 7.7,16.5989011 8,16.3681319 C8.38333333,16.2527473 8.68333333,16.0054945 8.9,15.6263736 C9.08333333,15.2967033 9.175,14.9175824 9.175,14.489011 C9.175,14.0769231 9.075,13.739011 8.875,13.4752747 C8.64166667,13.1785714 8.31666667,13.0879121 7.9,13.2032967 C7.46666667,13.3186813 7.23333333,13.5164835 7.2,13.7967033 C7.2,13.8296703 7.125,13.9945055 6.975,14.2912088 C6.925,14.3901099 6.88333333,14.6373626 6.85,15.032967 C6.85,15.0494505 6.83333333,15.1236264 6.8,15.2554945 L6.8,15.2554945 Z M16.175,21.3379121 C16.1583333,21.206044 16.1,21.0082418 16,20.7445055 C15.7,19.9697802 14.9,19.739011 13.6,20.0521978 C13.1666667,20.1675824 12.9083333,20.4807692 12.825,20.9917582 C12.7583333,21.4532967 12.8666667,21.8571429 13.15,22.2032967 C13.3166667,22.4010989 13.4083333,22.5247253 13.425,22.5741758 C13.475,22.6730769 13.4583333,22.8214286 13.375,23.0192308 C13.2916667,23.282967 13.1,23.6126374 12.8,24.0082418 C12.6666667,24.271978 12.3666667,24.5851648 11.9,24.9478022 C11.8333333,25.0302198 11.6416667,25.1868132 11.325,25.4175824 C11.075,25.5824176 10.9166667,25.7554945 10.85,25.9368132 C10.7833333,26.1510989 10.8166667,26.3324176 10.95,26.4807692 C11.0833333,26.6126374 11.2583333,26.6373626 11.475,26.5549451 C11.7083333,26.456044 11.875,26.3489011 11.975,26.2335165 C12.0416667,26.1510989 12.2666667,25.9945055 12.65,25.7637363 C12.9166667,25.5824176 13.15,25.2527473 13.35,24.7747253 C13.4166667,24.6263736 13.4833333,24.6675824 13.55,24.8983516 C13.6166667,25.0796703 13.65,25.2197802 13.65,25.3186813 C13.7833333,26.010989 13.875,26.4065934 13.925,26.5054945 C14.025,26.7362637 14.175,26.9258242 14.375,27.0741758 C14.625,27.2554945 14.8416667,27.2802198 15.025,27.1483516 C15.0916667,27.1153846 15.0833333,26.9752747 15,26.728022 C14.9,26.4642857 14.8416667,26.3159341 14.825,26.282967 C14.7416667,26.0851648 14.6916667,25.8131868 14.675,25.467033 C14.625,25.0054945 14.5916667,24.7335165 14.575,24.6510989 L14.525,24.4038462 C14.5916667,24.2554945 14.6083333,24.1318681 14.575,24.032967 C14.475,23.6703297 14.45,23.4230769 14.5,23.2912088 C14.5166667,23.2747253 14.525,23.1675824 14.525,22.9697802 C14.5416667,22.8379121 14.5916667,22.7554945 14.675,22.7225275 C14.7083333,22.7225275 14.7833333,22.7142857 14.9,22.6978022 C15.0166667,22.6648352 15.0666667,22.6318681 15.05,22.5989011 C15.4666667,22.5824176 15.7916667,22.3516484 16.025,21.9065934 C16.125,21.6923077 16.175,21.5027473 16.175,21.3379121 L16.175,21.3379121 Z M21.35,14.8598901 C21,15.0082418 20.775,15.3049451 20.675,15.75 C20.625,15.9807692 20.575,16.0961538 20.525,16.0961538 C20.4583333,16.0961538 20.4333333,16.1373626 20.45,16.2197802 C20.4833333,16.3351648 20.4916667,16.4010989 20.475,16.4175824 C20.2916667,16.7802198 20.35,17.1840659 20.65,17.6291209 C20.95,18.0741758 21.3083333,18.2142857 21.725,18.0494505 C21.8916667,18.032967 22.0583333,17.9505495 22.225,17.8021978 C22.3916667,17.6703297 22.5083333,17.521978 22.575,17.3571429 C22.5916667,17.3076923 22.6333333,17.25 22.7,17.1840659 C22.7833333,17.1346154 22.825,17.0769231 22.825,17.010989 L22.9,16.2692308 C22.9,15.8241758 22.7583333,15.4450549 22.475,15.1318681 C22.1416667,14.7527473 21.7666667,14.6620879 21.35,14.8598901 L21.35,14.8598901 Z M16.7,0.370879121 C16.5666667,0.321428571 16.375,0.304945055 16.125,0.321428571 C15.775,0.337912088 15.5666667,0.346153846 15.5,0.346153846 L14.375,0.346153846 C13.7416667,0.362637363 13.1,0.486263736 12.45,0.717032967 C12.1333333,0.832417582 11.7833333,0.914835165 11.4,0.964285714 C11.1,1.09615385 10.875,1.17857143 10.725,1.21153846 C10.6083333,1.22802198 10.3416667,1.35164835 9.925,1.58241758 C9.775,1.66483516 9.25833333,1.82142857 8.375,2.0521978 C8.05019531,2.20074262 7.87519531,2.53041295 7.85,3.04120879 C8.11445313,3.05402215 8.25611979,3.06226391 8.275,3.06593407 L8.3,3.06593407 C8.33958333,3.05402215 8.38958333,3.06226391 8.45,3.09065934 C8.46276042,3.09664749 8.47109375,3.09664749 8.475,3.09065934 C8.49492188,3.08595896 8.51158854,3.0777172 8.525,3.06593407 C8.5234375,3.04739011 8.54010417,3.03914835 8.575,3.04120879 L8.6,3.04120879 C8.57382813,3.05357143 8.54882813,3.06181319 8.525,3.06593407 C8.52298177,3.10817308 8.5563151,3.17410714 8.625,3.26373626 C8.67545573,3.04275412 8.70878906,2.99330357 8.725,3.11538462 C8.86328125,2.94475446 8.97161458,2.84585337 9.05,2.81868132 C9.08463542,2.81610577 9.11796875,2.80786401 9.15,2.79395604 C9.1984375,2.78796789 9.24010417,2.77972613 9.275,2.76923077 C9.92897135,2.6347227 10.320638,2.5358216 10.45,2.47252747 C11.1833333,2.27472527 11.6916667,2.10164835 11.975,1.9532967 C12.4083333,1.70604396 12.75,1.58241758 13,1.58241758 C13.2333333,1.56593407 13.5666667,1.54945055 14,1.53296703 C14.1,1.51648352 14.2666667,1.50824176 14.5,1.50824176 C14.5333333,1.50824176 14.6,1.49175824 14.7,1.45879121 C14.7666667,1.42582418 14.8333333,1.41758242 14.9,1.43406593 C15.3,1.51648352 15.5333333,1.55769231 15.6,1.55769231 C15.8166667,1.52472527 15.95,1.47527473 16,1.40934066 C16.0833333,1.34340659 16.1916667,1.32692308 16.325,1.35989011 C16.425,1.34340659 16.5583333,1.35989011 16.725,1.40934066 C16.925,1.45879121 17.075,1.47527473 17.175,1.45879121 C17.3416667,1.42582418 17.575,1.47527473 17.875,1.60714286 C18.1916667,1.75549451 18.425,1.82967033 18.575,1.82967033 C18.7083333,1.81318681 18.85,1.84615385 19,1.92857143 C19.1833333,2.02747253 19.325,2.07692308 19.425,2.07692308 C19.8583333,2.10989011 20.175,2.20879121 20.375,2.37362637 C20.7416667,2.71978022 21.1916667,3.00824176 21.725,3.23901099 C21.875,3.30494505 22.1,3.43681319 22.4,3.63461538 C22.5,3.68406593 22.575,3.75824176 22.625,3.85714286 C22.6583333,3.92307692 22.7083333,4.02197802 22.775,4.15384615 C22.8083333,4.2032967 22.8833333,4.26098901 23,4.32692308 C23.0833333,4.37637363 23.1416667,4.45054945 23.175,4.54945055 C23.225,4.64835165 23.3,4.72252747 23.4,4.77197802 C23.4333333,4.78846154 23.4666667,4.80494505 23.5,4.82142857 C23.5833333,4.8543956 23.6416667,4.88736264 23.675,4.92032967 C23.8583333,5.11813187 23.9666667,5.36538462 24,5.66208791 C24.0666667,5.51373626 24.15,5.36538462 24.25,5.21703297 C23.9735026,5.7890625 24.4485026,6.37422734 25.675,6.97252747 L26.375,6.5521978 C25.2416667,5.08516484 24.625,4.27747253 24.525,4.12912088 C24.4583333,4.0467033 24.3583333,3.9478022 24.225,3.83241758 C24.2083333,3.81593407 24.1916667,3.79945055 24.175,3.78296703 C23.975,3.63461538 23.85,3.53571429 23.8,3.48626374 C23.1833333,2.90934066 22.6083333,2.45604396 22.075,2.12637363 C21.5916667,1.84615385 20.9833333,1.53296703 20.25,1.18681319 C20.1833333,1.15384615 19.825,1.02197802 19.175,0.791208791 C19.0916667,0.758241758 18.95,0.733516484 18.75,0.717032967 C18.55,0.717032967 18.4083333,0.692307692 18.325,0.642857143 C17.9083333,0.461538462 17.65,0.362637363 17.55,0.346153846 C17.45,0.32967033 17.3083333,0.337912088 17.125,0.370879121 C16.9416667,0.403846154 16.8,0.403846154 16.7,0.370879121 L16.7,0.370879121 Z" id="Shape" fill="#000000"></path></g><g id="oor-links" transform="translate(20.500000, 0.222527)"><path d="M13.325,2.32417582 L13.35,2.27472527 C13.3333333,2.22527473 13.3083333,2.22527473 13.275,2.27472527 C13.2416667,2.34065934 13.2416667,2.37362637 13.275,2.37362637 C13.025,2.40659341 12.825,2.36538462 12.675,2.25 C12.525,2.1510989 12.3083333,2.06043956 12.025,1.97802198 C11.6083333,1.84615385 11.3916667,1.78021978 11.375,1.78021978 C10.7416667,1.58241758 10.1583333,1.44230769 9.625,1.35989011 C9.24166667,1.31043956 8.89166667,1.28571429 8.575,1.28571429 C8.125,1.28571429 7.61666667,1.40934066 7.05,1.65659341 C6.43333333,1.98626374 5.975,2.22527473 5.675,2.37362637 C5.24166667,2.57142857 4.81666667,2.85989011 4.4,3.23901099 C3.96666667,3.61813187 3.63333333,4.00549451 3.4,4.4010989 C3.33333333,4.51648352 3.19166667,4.66483516 2.975,4.84615385 C2.75833333,5.02747253 2.60833333,5.19230769 2.525,5.34065934 C2.50833333,5.37362637 2.46666667,5.47252747 2.4,5.63736264 C2.36666667,5.76923077 2.31666667,5.86813187 2.25,5.93406593 C2.2,6 2.16666667,6.08241758 2.15,6.18131868 C2.11666667,6.28021978 2.08333333,6.3543956 2.05,6.40384615 C1.51666667,7.21153846 1.65833333,8.04395604 2.475,8.9010989 C3.125,9.60989011 4.00833333,10.1703297 5.125,10.5824176 C5.575,10.7472527 6.06666667,10.8956044 6.6,11.0274725 C6.75,11.0769231 7,11.1510989 7.35,11.25 C7.65,11.3324176 7.89166667,11.3489011 8.075,11.2994505 C8.19166667,11.2994505 8.34166667,11.282967 8.525,11.25 C8.69166667,11.2335165 8.84166667,11.2335165 8.975,11.25 C9.075,11.2664835 9.18333333,11.25 9.3,11.2005495 C9.38333333,11.1840659 9.49166667,11.1428571 9.625,11.0769231 C9.70833333,11.043956 9.84166667,11.0274725 10.025,11.0274725 L10.45,10.8791209 C10.8333333,10.7472527 11.1333333,10.6071429 11.35,10.4587912 C11.7166667,10.2445055 11.9916667,10.0879121 12.175,9.98901099 C12.475,9.79120879 12.725,9.59340659 12.925,9.3956044 C13.025,9.2967033 13.1333333,9.17307692 13.25,9.02472527 C13.4833333,8.72802198 13.7666667,8.3489011 14.1,7.88736264 C14.5,7.34340659 14.775,6.8489011 14.925,6.40384615 C15.0583333,6.05769231 15.1666667,5.75274725 15.25,5.48901099 C15.4166667,4.99450549 15.4583333,4.72252747 15.375,4.67307692 C15.3916667,4.67307692 15.4,4.55769231 15.4,4.32692308 C15.4166667,4.09615385 15.4166667,3.95604396 15.4,3.90659341 C15.3333333,3.52747253 15.2333333,3.26373626 15.1,3.11538462 C15.05,3.04945055 14.9416667,2.99175824 14.775,2.94230769 C14.575,2.89285714 14.4416667,2.85164835 14.375,2.81868132 C13.775,2.52197802 13.425,2.35714286 13.325,2.32417582 L13.325,2.32417582 Z" id="Shape" stroke="#864E2E" stroke-width="0.5" fill="#864E2E"></path><path d="M9.725,0.148351648 C9.475,0.115384615 9.28333333,0.0989010989 9.15,0.0989010989 C7.75,0.148351648 6.425,0.56043956 5.175,1.33516484 C3.84166667,2.15934066 2.84166667,3.02472527 2.175,3.93131868 C1.30833333,5.08516484 0.766666667,6.01648352 0.55,6.72527473 C0.533333333,6.84065934 0.525,7.00549451 0.525,7.21978022 C0.541666667,7.43406593 0.533333333,7.5989011 0.5,7.71428571 C0.466666667,7.84615385 0.491666667,7.96153846 0.575,8.06043956 C0.691666667,8.20879121 0.758333333,8.30769231 0.775,8.35714286 C0.841666667,8.53846154 0.975,8.75274725 1.175,9 C1.40833333,9.28021978 1.55833333,9.48626374 1.625,9.61813187 C1.725,9.8489011 2,10.0631868 2.45,10.260989 L3.35,10.8543956 C3.55,10.9862637 3.85833333,11.1593407 4.275,11.3736264 C4.60833333,11.6373626 4.8,11.7692308 4.85,11.7692308 C4.88333333,11.7692308 4.95,11.7527473 5.05,11.7197802 C5.1,11.7032967 5.15833333,11.7115385 5.225,11.7445055 C5.40833333,11.8269231 5.525,11.8681319 5.575,11.8681319 C5.875,11.967033 6.19166667,12.0412088 6.525,12.0906593 C6.57845052,12.1012191 6.62845052,12.1094609 6.675,12.1153846 C8.13359375,12.2146077 8.94192708,12.2558164 9.1,12.239011 C9.2,12.239011 9.34166667,12.2307692 9.525,12.2142857 C10.425,12.0659341 11.0333333,11.8928571 11.35,11.6950549 C12.1166667,11.2664835 12.5916667,10.9862637 12.775,10.8543956 C13.0083333,10.7225275 13.1583333,10.5989011 13.225,10.4835165 C13.375,10.2857143 13.4583333,10.1868132 13.475,10.1868132 C13.7583333,10.0054945 13.9583333,9.81593407 14.075,9.61813187 C14.175,9.51923077 14.2583333,9.42857143 14.325,9.34615385 C14.425,9.23076923 14.4916667,9.13186813 14.525,9.04945055 C14.5916667,8.9010989 14.7333333,8.67857143 14.95,8.38186813 C15.1666667,8.11813187 15.3083333,7.8956044 15.375,7.71428571 C15.5416667,7.54945055 15.65,7.40934066 15.7,7.29395604 L15.8,6.87362637 C15.9833333,6.49450549 16.1166667,6.21428571 16.2,6.03296703 C16.2333333,5.85164835 16.2666667,5.7032967 16.3,5.58791209 C16.3166667,5.48901099 16.3333333,5.40659341 16.35,5.34065934 C16.4,5.22527473 16.425,5.09340659 16.425,4.94505495 C16.4416667,4.74725275 16.4583333,4.60714286 16.475,4.52472527 C16.4916667,4.47527473 16.5083333,4.31868132 16.525,4.05494505 C16.525,3.95604396 16.5333333,3.86538462 16.55,3.78296703 C16.4333333,3.32142857 16.3166667,2.85989011 16.2,2.39835165 C16.05,2.41483516 15.9083333,2.39010989 15.775,2.32417582 L15.75,2.29945055 C15.3833333,2.01923077 15.0916667,1.84615385 14.875,1.78021978 C14.475,1.63186813 14.175,1.52472527 13.975,1.45879121 C13.5583333,1.32692308 13.2583333,1.21153846 13.075,1.11263736 C12.625,0.848901099 12.3833333,0.708791209 12.35,0.692307692 C11.9166667,0.675824176 11.6,0.626373626 11.4,0.543956044 C11.2833333,0.461538462 11.175,0.412087912 11.075,0.395604396 C10.9416667,0.395604396 10.8333333,0.370879121 10.75,0.321428571 C10.6833333,0.288461538 10.4416667,0.247252747 10.025,0.197802198 C9.90833333,0.181318681 9.80833333,0.164835165 9.725,0.148351648 L9.725,0.148351648 Z M13.35,2.27472527 L13.325,2.32417582 C13.425,2.35714286 13.775,2.52197802 14.375,2.81868132 C14.4416667,2.85164835 14.575,2.89285714 14.775,2.94230769 C14.9416667,2.99175824 15.05,3.04945055 15.1,3.11538462 C15.2333333,3.26373626 15.3333333,3.52747253 15.4,3.90659341 C15.4166667,3.95604396 15.4166667,4.09615385 15.4,4.32692308 C15.4,4.55769231 15.3916667,4.67307692 15.375,4.67307692 C15.4583333,4.72252747 15.4166667,4.99450549 15.25,5.48901099 C15.1666667,5.75274725 15.0583333,6.05769231 14.925,6.40384615 C14.775,6.8489011 14.5,7.34340659 14.1,7.88736264 C13.7666667,8.3489011 13.4833333,8.72802198 13.25,9.02472527 C13.1333333,9.17307692 13.025,9.2967033 12.925,9.3956044 C12.725,9.59340659 12.475,9.79120879 12.175,9.98901099 C11.9916667,10.0879121 11.7166667,10.2445055 11.35,10.4587912 C11.1333333,10.6071429 10.8333333,10.7472527 10.45,10.8791209 L10.025,11.0274725 C9.84166667,11.0274725 9.70833333,11.043956 9.625,11.0769231 C9.49166667,11.1428571 9.38333333,11.1840659 9.3,11.2005495 C9.18333333,11.25 9.075,11.2664835 8.975,11.25 C8.84166667,11.2335165 8.69166667,11.2335165 8.525,11.25 C8.34166667,11.282967 8.19166667,11.2994505 8.075,11.2994505 C7.89166667,11.3489011 7.65,11.3324176 7.35,11.25 C7,11.1510989 6.75,11.0769231 6.6,11.0274725 C6.06666667,10.8956044 5.575,10.7472527 5.125,10.5824176 C4.00833333,10.1703297 3.125,9.60989011 2.475,8.9010989 C1.65833333,8.04395604 1.51666667,7.21153846 2.05,6.40384615 C2.08333333,6.3543956 2.11666667,6.28021978 2.15,6.18131868 C2.16666667,6.08241758 2.2,6 2.25,5.93406593 C2.31666667,5.86813187 2.36666667,5.76923077 2.4,5.63736264 C2.46666667,5.47252747 2.50833333,5.37362637 2.525,5.34065934 C2.60833333,5.19230769 2.75833333,5.02747253 2.975,4.84615385 C3.19166667,4.66483516 3.33333333,4.51648352 3.4,4.4010989 C3.63333333,4.00549451 3.96666667,3.61813187 4.4,3.23901099 C4.81666667,2.85989011 5.24166667,2.57142857 5.675,2.37362637 C5.975,2.22527473 6.43333333,1.98626374 7.05,1.65659341 C7.61666667,1.40934066 8.125,1.28571429 8.575,1.28571429 C8.89166667,1.28571429 9.24166667,1.31043956 9.625,1.35989011 C10.1583333,1.44230769 10.7416667,1.58241758 11.375,1.78021978 C11.3916667,1.78021978 11.6083333,1.84615385 12.025,1.97802198 C12.3083333,2.06043956 12.525,2.1510989 12.675,2.25 C12.825,2.36538462 13.025,2.40659341 13.275,2.37362637 C13.2416667,2.37362637 13.2416667,2.34065934 13.275,2.27472527 C13.3083333,2.22527473 13.3333333,2.22527473 13.35,2.27472527 L13.35,2.27472527 Z" id="Shape" fill="#000000"></path></g><g id="oor-rechts" transform="translate(50.525000, 5.142857)"><path d="M9.65,2.71978022 C9.6,2.63736264 9.53333333,2.58791209 9.45,2.57142857 C9.13333333,2.35714286 8.89166667,2.21703297 8.725,2.1510989 L8.325,2.0521978 C8.10833333,1.9532967 7.94166667,1.87912088 7.825,1.82967033 C7.625,1.76373626 7.3,1.68131868 6.85,1.58241758 C6.4,1.5 6.06666667,1.41758242 5.85,1.33516484 C5.58333333,1.25274725 5.24166667,1.22802198 4.825,1.26098901 C4.775,1.27747253 4.74166667,1.29395604 4.725,1.31043956 C4.65833333,1.31043956 4.61666667,1.29395604 4.6,1.26098901 C4.56666667,1.17857143 4.54166667,1.12912088 4.525,1.11263736 C4.50833333,1.07967033 4.45,1.07142857 4.35,1.08791209 C4.11666667,1.13736264 3.80833333,1.16208791 3.425,1.16208791 C2.875,1.1456044 2.56666667,1.13736264 2.5,1.13736264 C2.16666667,1.13736264 1.96666667,1.18681319 1.9,1.28571429 C1.81666667,1.41758242 1.75833333,1.66483516 1.725,2.02747253 C1.45833333,3.36263736 1.41666667,4.77197802 1.6,6.25549451 C1.83333333,8.08516484 2.41666667,9.38736264 3.35,10.1620879 C3.86666667,10.5741758 4.15,10.7967033 4.2,10.8296703 C4.26666667,10.8626374 4.425,10.9203297 4.675,11.0027473 C4.875,11.0686813 5.025,11.1346154 5.125,11.2005495 C5.325,11.3489011 5.68333333,11.4395604 6.2,11.4725275 C6.36666667,11.489011 6.6,11.4972527 6.9,11.4972527 C7.03333333,11.5137363 7.225,11.5384615 7.475,11.5714286 C8.625,11.7197802 10.025,11.4313187 11.675,10.706044 C12.275,10.5082418 12.725,10.3269231 13.025,10.1620879 C13.325,9.99725275 13.525,9.83241758 13.625,9.66758242 C13.725,9.46978022 13.75,9.1978022 13.7,8.85164835 L13.525,7.98626374 C13.525,7.73901099 13.5083333,7.54945055 13.475,7.41758242 C13.3916667,7.21978022 13.275,7.0467033 13.125,6.89835165 C13.0583333,6.81593407 13.0083333,6.67582418 12.975,6.47802198 C12.925,6.28021978 12.875,6.14010989 12.825,6.05769231 L12.325,5.34065934 C12.175,4.99450549 12.0333333,4.77197802 11.9,4.67307692 C11.6833333,4.52472527 11.4333333,4.3021978 11.15,4.00549451 C10.7833333,3.60989011 10.55,3.37087912 10.45,3.28846154 C10.3666667,3.20604396 10.1583333,3.07417582 9.825,2.89285714 C9.775,2.87637363 9.71666667,2.81868132 9.65,2.71978022 L9.65,2.71978022 Z" id="Shape" stroke="#864E2E" stroke-width="0.5" fill="#864E2E"></path><path d="M9.6,1.63186813 C9.28333333,1.4010989 9.03333333,1.23626374 8.85,1.13736264 C8.81666667,1.12087912 8.525,1.02197802 7.975,0.840659341 C6.24166667,0.346153846 4.825,0.115384615 3.725,0.148351648 L2.475,0.148351648 C2.39166667,0.148351648 2.25833333,0.173076923 2.075,0.222527473 C1.90833333,0.288461538 1.775,0.313186813 1.675,0.296703297 C1.60833333,0.296703297 1.54166667,0.263736264 1.475,0.197802198 C1.14166667,0.576923077 0.875,0.980769231 0.675,1.40934066 C0.691666667,1.60714286 0.675,1.82967033 0.625,2.07692308 C0.591666667,2.27472527 0.525,2.58791209 0.425,3.01648352 C0.341666667,3.37912088 0.316666667,3.69230769 0.35,3.95604396 C0.433333333,4.61538462 0.475,4.99450549 0.475,5.09340659 C0.408333333,5.47252747 0.408333333,5.79395604 0.475,6.05769231 L0.65,7.51648352 C0.683333333,7.63186813 0.708333333,7.78021978 0.725,7.96153846 C0.758333333,8.12637363 0.825,8.27472527 0.925,8.40659341 C1.04166667,8.55494505 1.15833333,8.81868132 1.275,9.1978022 C1.375,9.41208791 1.68333333,9.87362637 2.2,10.5824176 C2.3,10.7472527 2.54166667,10.9532967 2.925,11.2005495 C3.00833333,11.25 3.11666667,11.3324176 3.25,11.4478022 C3.38333333,11.5467033 3.50833333,11.6126374 3.625,11.6456044 C3.725,11.6785714 3.85,11.7445055 4,11.8434066 C4.15,11.9587912 4.26666667,12.0247253 4.35,12.0412088 C4.71666667,12.1401099 5,12.1978022 5.2,12.2142857 C5.25266927,12.2247167 5.31933594,12.249442 5.4,12.2884615 C5.31334635,12.3272879 5.35501302,12.3684967 5.525,12.4120879 C5.9203125,12.5073832 6.4703125,12.5403503 7.175,12.510989 C7.8765625,12.479181 8.45989583,12.4626975 8.925,12.4615385 C9.15833333,12.4615385 9.31666667,12.4532967 9.4,12.4368132 C9.48333333,12.4203297 9.60833333,12.3791209 9.775,12.3131868 C9.99166667,12.2637363 10.3083333,12.239011 10.725,12.239011 C11.3083333,12.0741758 11.6583333,11.9835165 11.775,11.967033 C11.8416667,11.9505495 11.95,11.9010989 12.1,11.8186813 C12.2166667,11.7527473 12.3166667,11.7115385 12.4,11.6950549 C12.6333333,11.6785714 12.875,11.5796703 13.125,11.3983516 C13.4583333,11.1675824 13.6833333,11.0274725 13.8,10.978022 C14.1333333,10.8626374 14.3416667,10.739011 14.425,10.6071429 C14.4916667,10.5247253 14.5416667,10.3928571 14.575,10.2115385 C14.625,9.9478022 14.65,9.80769231 14.65,9.79120879 C14.6833333,9.67582418 14.6916667,9.52747253 14.675,9.34615385 C14.6416667,9.13186813 14.625,8.99175824 14.625,8.92582418 C14.6583333,8.74450549 14.65,8.49725275 14.6,8.18406593 C14.55,7.82142857 14.4583333,7.47527473 14.325,7.1456044 C14.3083333,6.83241758 14.25,6.59340659 14.15,6.42857143 C13.95,6.14835165 13.8166667,5.92582418 13.75,5.76098901 L13.525,5.14285714 C13.475,5.06043956 13.4,4.96978022 13.3,4.87087912 C13.1833333,4.78846154 13.1083333,4.71428571 13.075,4.64835165 C12.8583333,4.3021978 12.7333333,4.11263736 12.7,4.07967033 C12.4166667,3.78296703 11.975,3.3543956 11.375,2.79395604 C10.9583333,2.39835165 10.3666667,2.01098901 9.6,1.63186813 L9.6,1.63186813 Z M9.45,2.57142857 C9.53333333,2.58791209 9.6,2.63736264 9.65,2.71978022 C9.71666667,2.81868132 9.775,2.87637363 9.825,2.89285714 C10.1583333,3.07417582 10.3666667,3.20604396 10.45,3.28846154 C10.55,3.37087912 10.7833333,3.60989011 11.15,4.00549451 C11.4333333,4.3021978 11.6833333,4.52472527 11.9,4.67307692 C12.0333333,4.77197802 12.175,4.99450549 12.325,5.34065934 L12.825,6.05769231 C12.875,6.14010989 12.925,6.28021978 12.975,6.47802198 C13.0083333,6.67582418 13.0583333,6.81593407 13.125,6.89835165 C13.275,7.0467033 13.3916667,7.21978022 13.475,7.41758242 C13.5083333,7.54945055 13.525,7.73901099 13.525,7.98626374 L13.7,8.85164835 C13.75,9.1978022 13.725,9.46978022 13.625,9.66758242 C13.525,9.83241758 13.325,9.99725275 13.025,10.1620879 C12.725,10.3269231 12.275,10.5082418 11.675,10.706044 C10.025,11.4313187 8.625,11.7197802 7.475,11.5714286 C7.225,11.5384615 7.03333333,11.5137363 6.9,11.4972527 C6.6,11.4972527 6.36666667,11.489011 6.2,11.4725275 C5.68333333,11.4395604 5.325,11.3489011 5.125,11.2005495 C5.025,11.1346154 4.875,11.0686813 4.675,11.0027473 C4.425,10.9203297 4.26666667,10.8626374 4.2,10.8296703 C4.15,10.7967033 3.86666667,10.5741758 3.35,10.1620879 C2.41666667,9.38736264 1.83333333,8.08516484 1.6,6.25549451 C1.41666667,4.77197802 1.45833333,3.36263736 1.725,2.02747253 C1.75833333,1.66483516 1.81666667,1.41758242 1.9,1.28571429 C1.96666667,1.18681319 2.16666667,1.13736264 2.5,1.13736264 C2.56666667,1.13736264 2.875,1.1456044 3.425,1.16208791 C3.80833333,1.16208791 4.11666667,1.13736264 4.35,1.08791209 C4.45,1.07142857 4.50833333,1.07967033 4.525,1.11263736 C4.54166667,1.12912088 4.56666667,1.17857143 4.6,1.26098901 C4.61666667,1.29395604 4.65833333,1.31043956 4.725,1.31043956 C4.74166667,1.29395604 4.775,1.27747253 4.825,1.26098901 C5.24166667,1.22802198 5.58333333,1.25274725 5.85,1.33516484 C6.06666667,1.41758242 6.4,1.5 6.85,1.58241758 C7.3,1.68131868 7.625,1.76373626 7.825,1.82967033 C7.94166667,1.87912088 8.10833333,1.9532967 8.325,2.0521978 L8.725,2.1510989 C8.89166667,2.21703297 9.13333333,2.35714286 9.45,2.57142857 L9.45,2.57142857 Z" id="Shape" fill="#000000"></path></g></g></g></g></svg>