<?xml version="1.0" encoding="UTF-8" standalone="no"?>
<svg
   xmlns:dc="http://purl.org/dc/elements/1.1/"
   xmlns:cc="http://creativecommons.org/ns#"
   xmlns:rdf="http://www.w3.org/1999/02/22-rdf-syntax-ns#"
   xmlns:svg="http://www.w3.org/2000/svg"
   xmlns="http://www.w3.org/2000/svg"
   xmlns:sodipodi="http://sodipodi.sourceforge.net/DTD/sodipodi-0.dtd"
   xmlns:inkscape="http://www.inkscape.org/namespaces/inkscape"
   version="1.1"
   id="Selfmade_by_NICF-Nettie"
   x="0px"
   y="0px"
   width="1000"
   height="121.00246"
   viewBox="0 0 999.99997 121.00246"
   enable-background="new 0 0 370.644 44.939"
   xml:space="preserve"
   sodipodi:docname="Ghostbusters.svg"
   inkscape:version="1.0.1 (3bc2e813f5, 2020-09-07)"><metadata
   id="metadata1219"><rdf:RDF><cc:Work
       rdf:about=""><dc:format>image/svg+xml</dc:format><dc:type
         rdf:resource="http://purl.org/dc/dcmitype/StillImage" /><dc:title></dc:title></cc:Work></rdf:RDF></metadata><defs
   id="defs1217">
	
	
	
</defs><sodipodi:namedview
   pagecolor="#ffffff"
   bordercolor="#666666"
   borderopacity="1"
   objecttolerance="10"
   gridtolerance="10"
   guidetolerance="10"
   inkscape:pageopacity="0"
   inkscape:pageshadow="2"
   inkscape:window-width="1600"
   inkscape:window-height="837"
   id="namedview1215"
   showgrid="false"
   inkscape:zoom="0.60019314"
   inkscape:cx="506.19647"
   inkscape:cy="152.86394"
   inkscape:window-x="-8"
   inkscape:window-y="-8"
   inkscape:window-maximized="1"
   inkscape:current-layer="Selfmade_by_NICF-Nettie" />
<g
   id="Actors">
	<g
   id="W">
	</g>
	<g
   id="e_1_">
	</g>
	<g
   id="a">
	</g>
	<g
   id="v">
	</g>
	<g
   id="e">
	</g>
	<g
   id="R_4_">
	</g>
	<g
   id="R_3_">
	</g>
	<g
   id="N_1_">
	</g>
	<g
   id="E">
	</g>
	<g
   id="Y_3_">
	</g>
	<g
   id="U_1_">
	</g>
	<g
   id="O_1_">
	</g>
	<g
   id="G">
	</g>
	<g
   id="I_1_">
	</g>
	<g
   id="S">
	</g>
	<g
   id="B">
	</g>
	<g
   id="I">
	</g>
	<g
   id="L_1_">
	</g>
	<g
   id="L">
	</g>
	<g
   id="M">
	</g>
	<g
   id="U">
	</g>
	<g
   id="R_2_">
	</g>
	<g
   id="R_1_">
	</g>
	<g
   id="A_2_">
	</g>
	<g
   id="Y_2_">
	</g>
	<g
   id="D_1_">
	</g>
	<g
   id="A_1_">
	</g>
	<g
   id="N">
	</g>
	<g
   id="A">
	</g>
	<g
   id="Y_1_">
	</g>
	<g
   id="K">
	</g>
	<g
   id="R">
	</g>
	<g
   id="O">
	</g>
	<g
   id="Y">
	</g>
	<g
   id="D">
	</g>
</g>
<g
   id="Ghostbusters"
   transform="matrix(2.6980139,0,0,2.6980139,1.8240541e-5,5.6140362e-5)">
	<g
   id="g1182">
		<path
   d="M 17.782,43.322 C 5.637,43.322 -0.009,36.283 0,25.214 0.009,13.669 6.12,6.42 17.59,6.154 c 3.734,0 7.778,2.432 10.991,0.699 l 0.046,10.7 c -1.719,-2.585 -2.99,-3.828 -4.811,-4.714 -1.58,-0.768 -3.448,-1.211 -5.168,-1.211 -6.201,0 -10.804,5.228 -10.804,12.817 0,8.147 1.621,13.028 9.747,13.036 0,0 1.742,0.057 3.164,-0.865 1.144,-0.748 1.214,-1.825 1.214,-2.363 0,-0.534 -0.005,-1.018 -0.005,-1.018 v -2.631 c 0,-4.344 -0.992,-4.508 -2.273,-6.494 h 11.8 c -1.082,1.934 -2.275,1.986 -2.275,6.494 v 5.497 5.343 h -2.889 c 0,0 -0.939,-0.054 -2.539,0.539 -1.597,0.587 -3.863,1.339 -6.006,1.339"
   id="path1160" />
		<path
   d="m 43.015,26.491 v 11 c -0.049,3.664 0.624,3.673 1.697,5.183 H 33.479 C 34.847,41 35.125,41.155 35.125,37.491 V 13.274 c 0,-4.898 -0.695,-5.035 -1.697,-6.643 h 11.133 c -1.116,1.875 -1.595,1.783 -1.595,6.643 v 8.565 h 12.915 v -8.565 c 0,-4.993 -0.73,-5.029 -1.699,-6.643 h 11.282 c -1.054,1.57 -1.742,1.649 -1.742,6.643 v 24.217 c 0,3.664 0.696,3.673 1.742,5.183 H 54.236 c 1.057,-1.51 1.645,-1.519 1.645,-5.183 v -11 z"
   id="path1162" />
		<path
   d="m 152.732,37.493 c 0,3.662 1.332,4.732 2.265,5.159 H 142.06 c 0.931,-0.427 2.834,-1.497 2.834,-5.159 V 12.321 c -4.414,0.052 -7.46,-0.516 -9.738,3.611 l -0.009,-9.304 26.845,-0.032 0.171,9.428 c -1.217,-3.776 -5.607,-3.813 -9.43,-3.874 v 25.343 z"
   id="path1164" />
		<path
   d="m 273.72,37.493 c 0,3.261 1.332,4.732 2.177,5.159 h -12.936 c 1.016,-0.427 2.909,-1.984 2.922,-5.159 V 12.321 c -4.415,0.052 -7.463,-0.516 -9.741,3.611 l -0.01,-9.304 26.846,-0.032 0.179,9.428 c -1.222,-3.776 -5.611,-3.813 -9.437,-3.874 z"
   id="path1166" />
		<path
   d="m 133.198,16.889 c -1.71,-1.81 -3.048,-4.537 -9.673,-5.088 -5.245,-0.437 -6.913,2.103 -6.913,4.285 0,6.049 19.542,2.996 19.542,15.565 0,8.219 -5.736,11.64 -15.129,11.64 -6.347,0 -8.799,-2.19 -12.05,-0.928 l 0.099,-12.316 c 2.102,3.682 6.052,7.632 11.888,7.701 3.659,0.043 7.057,-1.861 7.057,-4.623 0,-3.711 -5.491,-4.569 -9.13,-5.536 -7.276,-1.932 -10.252,-5.122 -10.252,-10.691 0,-5.953 5.165,-10.762 13.422,-10.762 4.092,0 9.033,1.539 11.223,0.748 z"
   id="path1168" />
		<path
   d="m 254.233,16.889 c -1.718,-1.81 -3.051,-4.537 -9.677,-5.088 -5.244,-0.437 -6.909,2.103 -6.909,4.285 0,6.049 19.542,2.996 19.542,15.565 0,8.219 -5.737,11.64 -15.135,11.64 -6.342,0 -8.792,-2.19 -12.044,-0.928 l 0.098,-12.316 c 2.101,3.682 6.053,7.632 11.888,7.701 3.662,0.043 7.053,-1.861 7.053,-4.623 0,-3.711 -5.487,-4.569 -9.125,-5.536 -7.273,-1.932 -10.252,-5.122 -10.252,-10.691 0,-5.953 5.162,-10.762 13.424,-10.762 4.088,0 9.028,1.539 11.222,0.748 z"
   id="path1170" />
		<path
   d="m 367.691,16.889 c -1.712,-1.81 -3.058,-4.537 -9.675,-5.088 -5.244,-0.437 -6.91,2.103 -6.91,4.285 0,6.049 19.537,2.996 19.537,15.565 0,8.219 -5.734,11.64 -15.129,11.64 -6.346,0 -8.795,-2.19 -12.048,-0.928 l 0.095,-12.316 c 2.105,3.682 6.056,7.632 11.891,7.701 3.66,0.043 7.058,-1.861 7.058,-4.623 0,-3.711 -5.488,-4.569 -9.132,-5.536 -7.271,-1.932 -10.246,-5.122 -10.246,-10.691 0,-5.953 5.16,-10.762 13.42,-10.762 4.087,0 9.031,1.539 11.224,0.748 z"
   id="path1172" />
		<path
   d="m 296.468,12.289 c 5.635,0 8.483,-1.064 11.75,3.031 l 0.07,-8.726 h -24.775 c 1.843,1.654 2.812,2.987 2.812,6.647 v 22.858 c 0,3.662 -0.969,4.566 -2.835,6.539 h 24.61 v -8.437 c -1.957,1.783 -2.821,2.156 -4.396,2.554 -1.861,0.506 -4.838,0.302 -7.286,0.242 h -2.257 V 27.32 h 1.426 c 2.551,0 7.884,-0.84 9.722,1.95 v -9.315 c -1.396,1.674 -3.658,2.174 -5.288,2.302 h -1.955 -3.904 v -9.968 z"
   id="path1174" />
		<path
   d="m 322.223,22.664 h -1.159 V 12.196 h 1.219 c 6.396,0 9.313,0 9.313,5.517 0,5.836 -4.427,4.951 -9.373,4.951 m 9.308,5.265 c 5.964,-1.208 8.777,-6.281 8.645,-10.409 C 339.899,9.151 333.427,6.47 324.24,6.587 h -15.27 c 0,0 2.966,1.424 3.027,7.007 0.063,5.58 0,23.654 0,23.654 0,0 0.124,3.159 -2.55,5.404 h 14.087 c 0,0 -2.525,-1.642 -2.525,-5.404 V 24.945 h 0.121 l 7.674,13.314 1.396,2.48 c 0,0 0.579,1.262 -0.569,1.912 h 5.213 6.992 z"
   id="path1176" />
		<path
   d="m 217.062,6.085 c 1.414,2.329 2.331,3.402 2.331,7.003 v 16.101 c 0,3.493 -0.253,5.068 -1.063,6.423 -0.957,1.613 -3.467,2.622 -5.344,2.645 h -0.771 c -1.879,-0.005 -4.437,-1.015 -5.395,-2.645 -0.813,-1.354 -1.072,-2.93 -1.072,-6.423 V 13.088 c 0,-3.601 0.924,-4.674 2.369,-7.003 h -11.703 c 1.522,2.416 2.386,3.34 2.386,7.003 v 16.145 c 0,5.408 0.508,7.432 2.34,9.686 1.878,2.427 5.361,4.228 11.096,4.228 v -0.005 l 0.683,0.01 c 5.739,0 9.213,-1.806 11.097,-4.232 1.826,-2.254 2.339,-4.277 2.339,-9.686 V 13.088 c 0,-3.661 0.861,-4.585 2.402,-7.003 z"
   id="path1178" />
		<path
   d="m 177.956,38.05 h -3.46 V 27.423 h 3.584 c 4.88,0 8.604,0.448 8.604,5.382 0.001,4.596 -3.629,5.245 -8.728,5.245 m -3.46,-25.499 h 3.396 c 4.774,0 7.661,0.389 7.661,4.535 0,5.03 -3.957,4.639 -7.792,4.639 h -3.265 z m 11.338,11.719 v -0.101 c 4.947,-1.273 7.912,-3.905 7.912,-8.493 0,-6.25 -4.91,-9.089 -11.475,-9.089 l -16.182,0.005 h -2.197 c 0,0 2.055,0.762 2.154,4.669 0.007,0.218 0.018,0.418 0.043,0.604 v 26.142 c 0,0 0.115,3.265 -2.015,4.637 l 2.015,0.01 h 14.835 c 7.021,0 13.73,-0.202 13.73,-10.361 0,-4.432 -3.187,-7.538 -8.82,-8.023"
   id="path1180" />
	</g>
</g>
<g
   id="GHOST_Symbol"
   transform="matrix(2.6980139,0,0,2.6980139,1.8240541e-5,5.6140362e-5)">
	<g
   id="Background">
		<path
   d="m 68.817,24.086 c 0,-11.019 7.92,-19.284 19.009,-19.284 11.093,0 18.695,7.957 18.695,19.284 0,11.016 -7.602,19.279 -19.329,19.279 -10.772,0 -18.375,-8.263 -18.375,-19.279 z"
   id="path1185" />
	</g>
	<g
   id="g1208">
		<path
   fill="#ffffff"
   d="m 101.625,26.683 c 0.002,0 0.005,-0.005 0.01,-0.005 0,0.005 0.006,0.005 0.006,0.005 z m -0.075,-0.016 h 0.01 -0.012 z m 8.79,-3.398 c -0.189,-0.082 -0.863,-0.24 -2.009,-0.471 0.004,0.01 -1.978,-0.374 -1.978,-0.374 l -0.091,-0.021 -0.031,0.09 c -0.002,0.014 -0.066,0.248 -0.021,0.47 0.021,0.113 0.079,0.222 0.177,0.298 -0.099,-0.069 -0.248,-0.199 -0.291,-0.417 -0.012,-0.074 -0.014,-0.164 0.005,-0.263 0.187,-0.911 0.792,-1.784 1.856,-2.667 -0.002,-0.008 0.759,-0.594 0.759,-0.594 l 0.353,-0.27 c 0.266,-0.213 0.399,-0.524 0.349,-0.778 -0.017,-0.057 -0.033,-0.113 -0.065,-0.161 -0.112,-0.184 -0.523,-0.556 -1.917,0.043 -0.22,0.104 -0.457,0.218 -0.705,0.353 -1.019,0.544 -1.66,0.916 -2.133,1.183 -0.711,0.41 -1.03,0.595 -1.681,0.838 -0.068,0.023 -0.13,0.033 -0.19,0.05 0.037,-0.041 0.051,-0.08 0.05,-0.12 0,-0.008 -0.002,-0.023 -0.005,-0.028 -0.02,-0.125 -0.187,-0.175 -0.332,-0.207 -0.3,-0.066 -0.652,0.022 -1.019,0.116 l -0.347,0.091 0.002,0.005 c -0.044,-0.005 -0.085,-0.011 -0.13,-0.011 0,0 -0.007,0.006 -0.012,0.006 0.05,-0.063 0.088,-0.125 0.088,-0.189 0,-0.01 0,-0.018 -0.003,-0.03 -0.04,-0.182 -0.39,-0.547 -0.601,-0.755 l -4.41,-4.51 -0.017,-0.006 C 93.19,13.25 91.388,13.366 89.947,13.456 l -0.433,0.027 0.007,0.108 c 0.044,0.596 -0.043,1.151 -0.265,1.69 -0.497,1.213 -0.934,1.763 -1.238,2.033 0.355,-0.457 0.723,-1.108 1.09,-1.949 0.383,-0.872 0.422,-1.68 0.266,-2.443 -0.184,-0.94 -0.662,-1.795 -1.169,-2.559 l -0.17,-0.255 C 87.642,9.535 87.442,9.053 87.342,8.555 87.232,8.001 87.251,7.44 87.269,6.733 L 87.287,6.318 C 87.291,6.148 87.274,5.991 87.241,5.832 87.045,4.841 86.251,4.098 86.212,4.061 86.177,4.019 86.145,3.967 86.113,3.925 c 0.173,0.135 0.399,0.316 0.62,0.563 l 0.08,0.094 0.076,-0.095 C 86.993,4.355 87.232,4.101 87.413,3.977 87.62,3.832 88.076,3.789 88.56,3.748 l 0.375,-0.04 C 89.528,3.649 89.926,3.315 90.079,2.762 90.195,2.334 90.019,2.117 89.812,2.052 89.645,1.996 89.327,2.144 88.878,2.396 L 88.781,2.45 c -0.05,0.025 -0.083,0.067 -0.083,0.121 -0.002,0.022 0,0.031 0,0.046 0.008,0.047 0.045,0.104 0.131,0.184 C 87.959,2.437 87.698,1.955 87.39,1.363 L 87.156,0.941 C 86.709,0.17 85.951,0.218 85.198,0.399 84.376,0.588 82.894,1.642 82.699,1.839 82.607,1.928 82.602,2.008 82.612,2.068 v 0.014 c 0.032,0.119 0.16,0.185 0.238,0.214 -0.215,0.02 -0.433,0.046 -0.669,0.084 -0.473,0.081 -0.95,0.218 -1.389,0.39 -0.87,0.357 -1.341,0.782 -1.461,0.902 -0.51,0.509 -0.95,1.243 -1.343,2.252 -0.104,0.269 -0.207,0.563 -0.303,0.87 -0.515,1.623 -1.229,2.538 -2.27,3.756 -1.084,1.265 -1.516,2.653 -1.244,4.009 0.199,1.001 0.876,2.042 1.424,2.749 -0.006,0.016 -0.008,0.021 -0.021,0.035 C 75.553,17.32 75.483,17.24 75.483,17.24 l -0.068,0.024 c -0.35,0.135 -1.29,0.752 -1.796,1.7 -0.615,1.157 -1.131,1.775 -2.494,2.996 -0.573,0.516 -1.114,0.96 -1.55,1.312 -0.363,0.305 -0.648,0.539 -0.837,0.717 l -0.121,0.116 c 0,0 0.35,0.122 0.546,0.192 -0.18,-0.006 -0.371,-0.028 -0.575,-0.075 -0.442,-0.097 -0.768,-0.25 -0.773,-0.25 C 67.81,23.966 67.1,23.67 67.1,23.67 c -0.848,-0.366 -2.216,-0.968 -3.944,-1.782 -1.917,-0.903 -3.18,-0.739 -3.616,-0.491 -0.151,0.082 -0.242,0.181 -0.251,0.287 -0.002,0.043 -0.002,0.074 0.002,0.112 0.06,0.288 0.48,0.496 1.124,0.722 0.976,0.351 1.735,0.996 1.906,1.251 0.028,0.042 0.062,0.09 0.087,0.136 -0.001,-0.002 -0.016,-0.018 -0.016,-0.018 l -0.034,-0.028 -0.051,-0.048 c -0.071,-0.09 -0.168,-0.146 -0.281,-0.156 -0.295,-0.026 -0.608,0.235 -0.638,0.263 0.002,-10e-4 -0.667,0.496 -0.667,0.496 l -0.267,0.201 c -0.551,0.403 -1.038,0.754 -0.961,1.115 0.009,0.044 0.021,0.083 0.044,0.122 0.232,0.424 0.622,0.355 1.319,0.225 l 0.733,-0.127 c 0.959,-0.145 1.474,0.34 1.676,0.598 -0.031,-0.023 -0.065,-0.04 -0.106,-0.073 -0.227,-0.165 -0.421,-0.236 -0.583,-0.198 -0.111,0.01 -0.204,0.075 -0.275,0.184 -0.038,0.054 -0.042,0.122 -0.045,0.198 -0.011,0.146 -0.019,0.302 -0.225,0.409 -0.382,0.21 -0.728,0.799 -0.743,0.826 -0.144,0.274 -0.153,0.486 -0.03,0.638 0.225,0.266 0.827,0.171 1.149,0.076 l 0.472,-0.153 c 0.229,-0.079 0.423,-0.145 0.565,-0.172 0.175,-0.033 0.213,-0.13 0.219,-0.181 0,-0.023 0,-0.041 -0.004,-0.056 -0.017,-0.097 -0.112,-0.188 -0.262,-0.26 0.111,0.03 0.262,0.086 0.409,0.159 1.298,0.865 2.133,1.044 2.487,1.116 l 0.13,0.031 c 0.186,0.052 0.267,-0.022 0.3,-0.067 0.033,-0.05 0.045,-0.121 0.031,-0.188 -0.007,-0.035 -0.036,-0.076 -0.056,-0.114 0.204,0.114 0.573,0.361 0.939,0.638 0.295,0.229 0.531,0.432 0.66,0.582 0.397,0.438 0.929,0.923 0.929,0.929 0.461,0.404 1.019,0.46 1.526,0.164 0.19,-0.111 0.233,-0.267 0.194,-0.465 C 70.894,30.321 70.713,30.01 70.5,29.64 l -0.02,-0.036 c -0.093,-0.171 -0.15,-0.317 -0.178,-0.442 -0.026,-0.144 -0.01,-0.257 0.022,-0.359 -0.015,0.056 -0.022,0.106 -0.009,0.156 0.002,0.018 0.009,0.037 0.02,0.057 0.021,0.039 0.075,0.112 0.219,0.1 0.317,-0.026 1.567,-0.516 2.583,-1.198 l 0.873,-0.607 0.124,-0.092 c 0.339,-0.236 0.632,-0.445 1.14,-0.738 0.368,-0.211 0.832,-0.37 1.373,-0.476 0,0 0.098,-0.015 0.187,-0.033 0.007,0.019 0.062,0.107 0.062,0.107 1.634,3.084 3.983,5.328 6.978,6.672 -0.026,0.028 -0.026,0.035 -0.047,0.055 -0.096,-0.041 -0.43,-0.189 -0.43,-0.189 l -0.048,0.081 c -0.319,0.56 -1.472,2.452 -3.081,3.377 l -0.149,0.086 0.145,0.096 c 3.06,1.927 6.702,2.601 10.254,1.893 5.499,-1.096 9.823,-5.343 11.012,-10.813 v -0.033 c 0.056,-0.233 0.047,-0.364 0.037,-0.43 -0.004,-0.017 -0.011,-0.027 -0.015,-0.035 0,0 -0.004,-0.02 -0.014,-0.037 0.006,0 0.104,-0.014 0.104,-0.014 0.38,-0.075 0.679,-0.207 0.822,-0.282 0,0.002 0,0.002 -0.002,-0.006 h 0.014 l 0.019,-0.009 0.102,-0.056 -0.007,0.013 0.366,-0.169 c 0.946,-0.486 1.785,-0.118 2.316,0.274 0.724,0.527 2.18,1.255 2.245,1.287 0.192,0.071 0.359,0.117 0.501,0.147 0.307,0.042 0.529,0.005 0.666,-0.137 0.085,-0.091 0.178,-0.261 0.114,-0.571 -0.019,-0.096 -0.098,-0.253 -0.518,-0.659 -0.286,-0.274 -0.627,-0.564 -0.861,-0.752 l -0.217,-0.199 -0.098,-0.089 c -0.148,-0.155 -0.324,-0.321 -0.582,-0.321 0.457,-0.319 1.042,-0.436 1.826,-0.363 0.302,0.016 0.593,0.07 0.85,0.115 l 0.466,0.063 c 0.858,0.1 1.535,-0.193 1.641,-0.709 0.018,-0.078 0.018,-0.162 0.004,-0.24 -0.063,-0.319 -0.387,-0.605 -0.969,-0.856"
   id="path1188" />
		<path
   fill="#1d1d1b"
   d="m 111.472,23.758 c -0.479,-0.568 -0.782,-0.649 -1.78,-0.902 l -0.123,-0.034 c -0.252,-0.062 -0.859,-0.175 -1.5,-0.295 -0.669,-0.126 -1.483,-0.271 -1.649,-0.328 0.1,-0.219 0.679,-1.366 1.766,-2.138 1.064,-0.758 1.522,-1.244 1.577,-1.676 0.01,-0.069 0.004,-0.142 -0.01,-0.212 -0.022,-0.112 -0.079,-0.231 -0.174,-0.341 -0.156,-0.184 -0.612,-0.738 -3.17,0.609 -0.535,0.28 -1.095,0.602 -1.594,0.886 -0.721,0.41 -1.333,0.762 -1.676,0.895 -0.111,-0.084 -0.582,-0.37 -1.554,-0.116 0,0 -0.274,0.077 -0.342,0.091 -0.078,-0.145 -0.357,-0.69 -0.499,-0.849 l -0.029,-0.027 -0.435,0.203 0.045,0.046 c 0.275,0.267 0.563,0.601 0.563,0.685 0,0.031 -0.024,0.07 -0.063,0.112 -0.095,0.076 -0.237,0.125 -0.345,0.114 -0.042,-0.005 -0.13,-0.01 -0.161,0.042 l -0.019,0.024 0.019,0.044 c 0.062,0.092 0.397,0.06 0.537,0.038 0.213,-0.03 0.418,-0.086 0.619,-0.135 0.353,-0.09 0.684,-0.177 0.946,-0.117 0.199,0.042 0.215,0.085 0.215,0.085 0,0.004 -0.019,0.099 -0.68,0.273 l 0.008,0.1 c 0.022,0 0.471,0.038 1.02,-0.161 0.665,-0.249 0.993,-0.438 1.706,-0.849 0.474,-0.271 1.112,-0.638 2.129,-1.181 1.479,-0.793 2.224,-0.756 2.42,-0.455 0.132,0.199 0.023,0.538 -0.248,0.753 l -0.338,0.262 c -0.828,0.605 -2.355,1.738 -2.686,3.351 -0.13,0.64 0.473,0.913 0.479,0.918 l 0.021,0.006 0.018,-0.006 c 0.008,-0.005 0.081,-0.034 0.102,-0.118 0.004,-0.016 0.004,-0.036 0,-0.065 -0.006,-0.042 -0.029,-0.08 -0.061,-0.119 -0.098,-0.113 -0.143,-0.214 -0.162,-0.301 -0.021,-0.118 0.002,-0.207 0.019,-0.248 0.367,0.063 3.494,0.619 3.918,0.804 0.533,0.226 0.827,0.479 0.881,0.737 0.01,0.063 0.01,0.123 0,0.186 -0.097,0.43 -0.702,0.673 -1.482,0.588 l -0.452,-0.068 c -0.836,-0.144 -2.094,-0.356 -2.97,0.39 -0.034,0.023 -0.052,0.062 -0.039,0.097 0.018,0.06 0.087,0.069 0.248,0.054 0.224,-0.02 0.372,0.122 0.526,0.283 l 0.096,0.094 0.229,0.197 c 0.381,0.317 1.276,1.086 1.328,1.338 0.031,0.162 -0.006,0.301 -0.121,0.391 -0.194,0.162 -0.56,0.156 -0.953,-0.003 -0.012,-0.014 -1.502,-0.754 -2.215,-1.274 -0.818,-0.609 -1.674,-0.708 -2.478,-0.292 -0.857,0.45 -1.947,0.767 -2.427,0.345 0,0 -0.003,-0.004 -0.013,-0.009 0.068,-0.063 0.269,-0.218 0.685,-0.258 0.189,-0.014 0.298,-0.051 0.32,-0.127 0.017,-0.027 0.01,-0.064 -0.022,-0.106 -0.071,-0.063 -0.244,-0.113 -0.394,-0.063 l -0.086,0.027 c -0.296,0.092 -0.844,0.26 -1.851,0.79 -1.231,0.65 -2.019,0.817 -2.399,0.493 -0.421,-0.349 -0.479,-0.855 0.499,-2.271 0.806,-1.153 0.696,-1.396 0.447,-1.612 l -0.069,-0.065 c -0.094,-0.095 -0.146,-0.136 -0.193,-0.114 -0.039,0.024 -0.039,0.067 -0.029,0.119 0.004,0.014 0.009,0.031 0.014,0.042 l 0.01,0.051 c 0.023,0.124 0.028,0.449 -0.083,0.619 -0.186,-0.093 -0.959,-0.528 -1.659,-1.52 -0.322,-0.454 -0.44,-0.521 -0.521,-0.476 -0.073,0.032 -0.071,0.169 -0.039,0.338 0.027,0.119 0.066,0.256 0.104,0.379 l 0.006,0.009 0.004,0.009 c 0.047,0.053 1.102,1.317 1.956,1.648 -0.14,0.203 -0.653,0.93 -0.993,1.6 -0.151,0.298 -0.196,0.608 -0.143,0.885 0.022,0.125 0.069,0.244 0.136,0.342 0.217,0.354 0.652,0.535 1.219,0.524 0.797,-0.019 1.533,-0.448 2.025,-0.729 0.236,-0.138 0.465,-0.268 0.533,-0.246 0.068,0.019 0.131,0.054 0.206,0.097 0.215,0.13 0.511,0.305 1.142,0.225 0.78,-0.097 1.184,-0.276 1.744,-0.529 l 0.151,-0.065 c 0.74,-0.322 0.962,-0.323 2.114,0.336 0.056,0.044 1.43,1.063 2.366,1.325 0.518,0.134 1.041,0.025 1.276,-0.28 0.113,-0.137 0.148,-0.314 0.113,-0.496 -0.02,-0.093 -0.059,-0.187 -0.108,-0.283 -0.13,-0.222 -0.478,-0.54 -0.847,-0.879 -0.378,-0.346 -0.754,-0.702 -0.912,-0.957 0.179,-0.071 0.882,-0.283 2.308,0.009 1.072,0.226 1.745,-0.198 2.006,-0.62 0.11,-0.201 0.15,-0.407 0.112,-0.593 -0.014,-0.115 -0.064,-0.218 -0.135,-0.3"
   id="path1190" />
		<path
   fill="#1d1d1b"
   d="m 82.387,14.772 c 0.062,0.648 -0.204,1.207 -0.593,1.242 -0.386,0.037 -0.75,-0.461 -0.808,-1.117 -0.061,-0.65 0.204,-1.208 0.592,-1.241 0.383,-0.033 0.746,0.463 0.809,1.116"
   id="path1192" />
		<path
   fill="#1d1d1b"
   d="m 82.444,10.999 c 0,0 0.087,-0.194 0.163,0.009 0.14,0.359 -0.598,1.458 -1.431,0.26 -0.167,-0.246 0.162,0.02 0.386,0.115 0.158,0.066 0.688,0.096 0.882,-0.384"
   id="path1194" />
		<path
   fill="#1d1d1b"
   d="m 82.702,17.441 c 0,0 0.078,-0.277 0.155,-0.079 0.137,0.366 -0.674,1.533 -1.806,0.369 -0.208,-0.206 0.158,0.024 0.38,0.12 0.161,0.071 1.076,0.077 1.271,-0.41"
   id="path1196" />
		<path
   fill="#1d1d1b"
   d="m 84.292,7.512 c 0.081,-0.006 -0.166,-0.977 -0.69,-0.677 -0.528,0.303 -0.424,1.043 -0.386,1.228 0.039,0.189 0.19,0.249 0.315,0.274 0.13,0.019 0.474,0.023 0.447,-0.24 -0.03,-0.26 -0.058,-0.607 0.03,-0.647 0.093,-0.043 0.198,0.067 0.284,0.062"
   id="path1198" />
		<path
   fill="#1d1d1b"
   d="M 81.072,7.195 C 81.165,7.252 80.991,6.444 80.441,6.612 79.9,6.783 79.898,7.439 79.977,7.677 80.1,8.064 80.239,8.239 80.511,8.218 80.825,8.189 80.922,8.033 80.889,7.746 80.858,7.463 80.525,7.128 80.662,7.073 c 0.133,-0.044 0.32,0.071 0.41,0.122"
   id="path1200" />
		<path
   fill="#1d1d1b"
   d="m 80.671,4.933 c 0,0 0.165,-0.276 -0.312,0.041 -0.476,0.314 -0.745,0.941 -0.676,1.05 0.071,0.104 0.306,0.076 0.353,-0.073 0.039,-0.16 0.072,-0.408 0.195,-0.567 0.128,-0.182 0.44,-0.451 0.44,-0.451"
   id="path1202" />
		<path
   fill="#1d1d1b"
   d="m 84.526,5.74 c 0,0 0.398,0.423 0.052,-0.211 -0.345,-0.646 -0.761,-0.873 -0.974,-0.713 -0.212,0.166 0.04,0.281 0.197,0.32 0.157,0.046 0.472,0.303 0.725,0.604"
   id="path1204" />
		<path
   fill="#1d1d1b"
   d="m 71.196,30.88 c 0.023,-0.111 0.026,-0.229 0.002,-0.351 -0.028,-0.132 -0.085,-0.264 -0.166,-0.396 -0.239,-0.373 -0.362,-0.678 -0.406,-0.799 0.305,-0.068 1.87,-0.472 3.238,-1.627 1.056,-0.894 2.073,-1.309 2.751,-1.51 0.395,0.798 2.38,4.397 6.508,6.448 -0.897,1.913 -2.733,3.022 -3.2,3.277 0.134,0.091 0.27,0.18 0.399,0.264 0.021,0.005 0.034,0.017 0.049,0.028 1.598,-0.926 2.751,-2.765 3.111,-3.394 1.674,0.775 3.506,1.207 5.438,1.268 0.511,-0.012 0.511,-0.059 0.513,-0.105 10e-4,-0.005 0,-0.01 0,-0.019 -0.009,-0.049 -0.08,-0.073 -0.522,-0.124 -0.083,0 -7.687,-0.045 -11.83,-7.764 0.215,-0.042 0.424,-0.069 0.596,-0.074 h 0.01 0.007 c 0.212,-0.1 0.198,-0.162 0.195,-0.189 -0.018,-0.059 -0.099,-0.07 -0.219,-0.07 -0.114,0.005 -0.356,0.019 -0.662,0.061 l -0.367,0.058 c -0.562,0.108 -1.042,0.275 -1.424,0.498 -0.565,0.326 -0.862,0.544 -1.273,0.832 l -0.875,0.609 c -1.006,0.678 -2.236,1.147 -2.508,1.173 -0.038,0.002 -0.059,-0.007 -0.071,-0.021 -0.035,-0.069 0.076,-0.3 0.167,-0.396 l 0.01,-0.013 0.002,-0.013 c 0.017,-0.113 0.026,-0.249 -0.052,-0.282 -0.066,-0.029 -0.132,0.042 -0.189,0.117 -0.252,0.336 -0.432,0.666 -0.059,1.325 l 0.023,0.036 c 0.384,0.67 0.572,1.027 0.308,1.182 -0.617,0.366 -1.108,0.065 -1.344,-0.144 -0.007,-0.002 -0.532,-0.479 -0.92,-0.917 -0.411,-0.457 -1.553,-1.236 -1.792,-1.32 -0.121,-0.04 -0.175,-0.055 -0.206,-0.016 -0.033,0.047 0,0.081 0.059,0.156 l 0.057,0.066 c 0.068,0.083 0.083,0.179 0.064,0.213 -0.018,0.025 -0.068,0.032 -0.138,0.006 l -0.134,-0.026 c -0.351,-0.074 -1.164,-0.254 -2.445,-1.104 -0.18,-0.084 -0.596,-0.266 -0.714,-0.179 -0.054,0.048 -0.088,0.076 -0.083,0.12 0.003,0.059 0.054,0.082 0.226,0.154 0.141,0.071 0.203,0.142 0.2,0.173 0,0.015 -0.028,0.04 -0.096,0.057 -0.145,0.029 -0.351,0.092 -0.58,0.171 l -0.473,0.154 c -0.295,0.087 -0.827,0.158 -0.986,-0.031 -0.078,-0.092 -0.064,-0.245 0.042,-0.459 0.007,-0.01 0.345,-0.579 0.686,-0.769 0.279,-0.147 0.295,-0.379 0.302,-0.535 0.006,-0.056 0.008,-0.104 0.02,-0.123 0.032,-0.045 0.08,-0.111 0.172,-0.121 0.121,-0.022 0.282,0.039 0.473,0.171 0.336,0.248 0.417,0.269 0.466,0.229 0.049,-0.04 0.012,-0.124 -0.039,-0.212 -0.056,-0.103 -0.618,-1.013 -1.933,-0.815 l -0.74,0.127 c -0.69,0.131 -0.973,0.184 -1.156,-0.141 -0.156,-0.294 0.325,-0.643 0.877,-1.046 l 0.267,-0.198 0.67,-0.504 c 0.007,0 0.295,-0.253 0.526,-0.225 0.075,0.006 0.128,0.04 0.175,0.096 l 0.086,0.074 0.019,0.021 c 0.21,0.268 0.485,0.53 0.489,0.53 l 0.019,0.021 0.121,-0.026 -0.031,-0.062 c -0.007,-0.017 -0.249,-0.499 -0.436,-0.773 -0.187,-0.278 -0.958,-0.955 -1.983,-1.317 -0.55,-0.192 -1.058,-0.414 -1.023,-0.667 0.007,-0.06 0.069,-0.122 0.169,-0.176 0.417,-0.226 1.618,-0.378 3.478,0.497 2.765,1.303 4.644,2.069 4.662,2.083 0.01,0 0.34,0.157 0.797,0.26 0.345,0.079 0.653,0.109 0.924,0.083 0.178,-0.014 0.192,-0.055 0.193,-0.088 0.005,-0.06 -0.07,-0.08 -0.109,-0.085 0,0 -0.464,-0.17 -0.651,-0.238 0.181,-0.167 0.447,-0.38 0.768,-0.648 0.435,-0.357 0.979,-0.8 1.558,-1.316 1.379,-1.243 1.896,-1.867 2.527,-3.039 0.513,-0.969 1.428,-1.506 1.681,-1.62 0.526,0.605 0.998,0.991 1.002,0.991 0.229,0.183 0.323,0.122 0.342,0.102 l 0.039,-0.037 -0.039,-0.035 c -0.019,-0.019 -2.092,-2.054 -2.465,-3.913 -0.257,-1.306 0.161,-2.647 1.215,-3.884 1.017,-1.185 1.778,-2.151 2.298,-3.809 0.444,-1.402 0.985,-2.432 1.605,-3.052 0.12,-0.118 0.57,-0.521 1.414,-0.866 0.429,-0.175 0.896,-0.306 1.353,-0.386 0.512,-0.086 0.924,-0.114 1.422,-0.09 0.047,0 0.132,0.004 0.149,-0.055 C 83.799,2.372 83.81,2.323 83.637,2.243 H 83.632 L 82.964,2.18 C 82.907,2.165 82.801,2.11 82.784,2.05 82.778,2.021 82.792,1.99 82.827,1.954 c 0.184,-0.179 1.647,-1.211 2.427,-1.395 0.65,-0.152 1.374,-0.251 1.794,0.47 l 0.223,0.421 c 0.35,0.657 0.65,1.222 1.82,1.623 l 0.007,0.002 h 0.016 C 89.148,3.073 89.232,3.054 89.251,2.998 V 2.963 C 89.241,2.919 89.191,2.884 89.174,2.876 88.937,2.713 88.876,2.626 88.871,2.601 c 0,-0.003 0.005,-0.003 0.005,-0.003 l 0.099,-0.056 c 0.185,-0.105 0.67,-0.376 0.813,-0.335 0.181,0.059 0.239,0.249 0.166,0.523 -0.144,0.499 -0.48,0.78 -1.017,0.84 L 88.565,3.607 C 88.038,3.65 87.582,3.692 87.346,3.862 87.162,3.991 86.944,4.212 86.825,4.353 86.408,3.896 85.95,3.618 85.93,3.607 L 85.914,3.595 85.9,3.601 c -0.033,0.007 -0.056,0.021 -0.067,0.05 -0.033,0.104 0.171,0.373 0.291,0.523 0.018,0.016 1.06,1 1.029,2.149 l -0.009,0.418 c -0.045,1.378 -0.072,2.212 0.79,3.47 0.968,1.418 1.934,3.1 1.056,5.105 -0.364,0.837 -0.732,1.493 -1.087,1.939 -0.123,0.154 -0.243,0.289 -0.363,0.393 -0.067,0.076 -0.082,0.118 -0.051,0.155 0.038,0.043 0.099,0.014 0.234,-0.072 l 0.057,-0.034 c 0.267,-0.148 0.886,-0.502 1.646,-2.342 0.223,-0.556 0.311,-1.114 0.272,-1.719 0.071,0 0.286,-0.014 0.286,-0.014 1.418,-0.095 3.194,-0.208 5.955,1.458 l 0.02,0.012 0.354,-0.152 -0.06,-0.054 c -0.017,-0.019 -2.134,-2.05 -6.508,-1.65 -0.009,0 -0.028,0 -0.059,-0.004 C 89.675,13.148 89.665,13.064 89.646,12.98 89.439,11.955 88.879,10.999 88.23,9.95 87.841,9.332 87.65,8.858 87.564,8.422 87.471,7.965 87.499,7.554 87.522,7.052 87.536,6.775 87.555,6.454 87.55,6.094 87.55,5.938 87.535,5.782 87.505,5.633 87.454,5.359 87.341,5.091 87.188,4.834 87.231,4.685 87.341,4.426 87.475,4.343 87.773,4.15 88.222,4.022 88.636,3.995 89.05,3.972 89.749,3.794 89.974,3.503 L 90.016,3.452 C 90.225,3.198 90.501,2.852 90.357,2.333 90.284,2.059 90.104,1.769 89.646,1.857 89.52,1.885 89.044,2.102 88.851,2.215 88.716,2.301 88.643,2.371 88.603,2.409 88.489,2.346 88.088,2.089 87.79,1.514 87.778,1.487 87.406,0.795 87.183,0.5 86.81,0 86.232,-0.119 85.323,0.116 84.682,0.279 84.002,0.63 83.178,1.21 l -0.432,0.3 c -0.137,0.1 -0.145,0.106 -0.189,0.158 l -0.041,0.04 c -0.148,0.178 -0.219,0.323 -0.203,0.441 0,0 0,0 0.002,0.015 0.002,0.017 0.011,0.032 0.021,0.046 -1.783,0.151 -2.794,0.911 -3.243,1.355 -0.636,0.633 -1.192,1.689 -1.644,3.129 -0.543,1.726 -1.338,2.658 -2.262,3.733 -0.977,1.141 -1.563,2.289 -1.256,4.223 0.007,0.036 0.014,0.081 0.023,0.122 0.144,0.726 0.568,1.521 1.251,2.357 -0.329,0.157 -1.132,0.667 -1.66,1.555 l -0.006,0.012 c -0.67,1.126 -1.074,1.81 -2.471,3.063 -0.627,0.559 -1.192,1.028 -1.654,1.407 -0.415,0.346 -0.712,0.592 -0.867,0.752 -1.163,-0.432 -2.952,-1.148 -4.933,-2.13 -2.958,-1.453 -4.288,-0.773 -4.582,-0.212 -0.057,0.108 -0.071,0.212 -0.051,0.312 0.002,0.019 0.009,0.043 0.019,0.065 0.088,0.222 0.381,0.425 0.927,0.628 0.558,0.201 1.298,0.529 1.751,0.905 -0.206,0.139 -0.922,0.623 -1.39,1.03 -0.468,0.406 -1.086,0.942 -1.003,1.377 0.01,0.05 0.031,0.095 0.057,0.146 0.206,0.325 0.534,0.338 0.723,0.354 h 0.022 c 0.081,0.005 0.254,-0.034 0.503,-0.08 0.383,-0.075 0.911,-0.174 1.201,-0.14 0,0 0.264,0.036 0.388,0.045 -0.069,0.095 -0.165,0.251 -0.165,0.467 0,0.128 -0.109,0.218 -0.261,0.332 -0.164,0.129 -0.367,0.283 -0.532,0.57 -0.229,0.402 -0.357,0.667 -0.314,0.887 0.017,0.098 0.062,0.175 0.135,0.257 0.241,0.261 0.603,0.336 1.076,0.207 l 1.37,-0.394 0.226,-0.103 c 0.163,-0.082 0.293,-0.142 0.437,-0.042 0.257,0.172 0.697,0.418 1.365,0.687 0.771,0.307 1.255,0.398 1.526,0.283 0,0 0.083,-0.041 0.118,-0.055 0.128,0.062 0.423,0.271 0.532,0.388 l 0.205,0.222 c 0.244,0.266 0.575,0.623 0.743,0.77 0.22,0.198 0.778,0.604 1.116,0.708 0.425,0.126 0.962,-0.018 1.203,-0.167 0.114,-0.068 0.202,-0.202 0.237,-0.355"
   id="path1206" />
	</g>
	<g
   id="Ebene_40">
		<path
   fill="#e52713"
   stroke="#000000"
   stroke-width="0.25"
   d="m 105.993,22.55 c -0.124,0.606 0.447,0.856 0.447,0.856 0,0 0.163,-0.075 0.022,-0.212 -0.362,-0.346 -0.137,-0.681 -0.137,-0.681 0,0 0.99,0.184 1.992,0.384 -0.061,-0.902 -0.177,-1.809 -0.359,-2.723 -0.023,-0.117 -0.05,-0.228 -0.072,-0.344 -0.78,0.646 -1.654,1.546 -1.893,2.72 z m 0.3,2.735 c 0,0 -0.139,0.089 0.163,0.061 0.304,-0.029 0.477,0.213 0.667,0.39 0.115,0.111 0.664,0.551 1.083,0.956 0.077,-0.627 0.124,-1.267 0.145,-1.911 -0.699,-0.055 -1.467,-0.005 -2.058,0.504 z m -37.736,-0.964 0.005,0.013 c 0,0 0.005,-0.005 0.006,-0.011 0.275,0.065 0.594,0.108 0.898,0.076 0,0 0.274,-0.021 0.073,-0.076 0,0 -0.265,-0.088 -0.732,-0.256 0.414,-0.393 1.336,-1.09 2.385,-2.029 1.412,-1.259 1.916,-1.898 2.521,-3.027 0.513,-0.958 1.454,-1.541 1.739,-1.652 0.043,0.049 0.093,0.109 0.136,0.158 0.046,-0.07 0.086,-0.146 0.134,-0.212 -0.593,-0.758 -1.254,-1.779 -1.454,-2.769 -0.286,-1.446 0.251,-2.782 1.225,-3.925 0.979,-1.137 1.756,-2.098 2.289,-3.789 0.101,-0.316 0.2,-0.603 0.301,-0.863 -6.594,3.464 -10.871,10.294 -11.022,17.807 0.456,0.198 0.709,0.297 0.709,0.297 0,0 0.336,0.154 0.787,0.258 z m 36.77,2.139 c -0.721,-0.532 -1.56,-0.732 -2.426,-0.283 -0.157,0.084 -0.324,0.15 -0.494,0.222 l -0.903,0.354 -0.049,0.429 c -0.364,1.772 -1.075,3.442 -2.069,4.933 -1.988,2.964 -5.108,5.174 -8.89,5.928 -3.655,0.732 -7.26,-0.04 -10.18,-1.878 -0.742,-0.467 -1.437,-1.007 -2.08,-1.605 l 22.666,-14.935 c 0.103,0.286 0.204,0.573 0.29,0.869 0.446,-0.107 0.88,-0.254 1.217,-0.178 0.346,0.07 0.474,0.207 -0.463,0.455 0,0 0.454,0.039 0.995,-0.158 1.102,-0.404 1.293,-0.67 3.83,-2.025 0.26,-0.139 0.491,-0.249 0.702,-0.339 C 104.951,9.861 97.397,4.082 88.854,3.613 88.229,3.676 87.625,3.702 87.354,3.891 87.159,4.023 86.916,4.28 86.808,4.419 86.451,4.017 86.051,3.746 85.924,3.659 85.9,3.664 85.88,3.667 85.854,3.67 c 0,0.108 0.29,0.462 0.29,0.462 0,0 1.064,0.996 1.04,2.186 -0.043,1.618 -0.172,2.481 0.766,3.85 0.059,0.086 0.116,0.167 0.168,0.252 3.451,0.081 6.683,1.447 9.136,3.71 L 74.62,29.045 c -0.22,-0.617 -0.414,-1.249 -0.547,-1.909 -0.262,0.184 -0.556,0.396 -0.997,0.695 -1.027,0.693 -2.26,1.158 -2.535,1.18 -0.271,0.021 -0.047,-0.389 0.05,-0.506 0,0 0.075,-0.413 -0.147,-0.125 -0.214,0.294 -0.425,0.615 -0.051,1.275 0.38,0.661 0.635,1.097 0.309,1.289 -0.529,0.312 -1.03,0.17 -1.406,-0.157 0,0 -0.525,-0.471 -0.922,-0.915 -0.152,-0.164 -0.404,-0.387 -0.673,-0.594 2.677,10.566 13.212,17.287 24.036,15.135 8.562,-1.699 14.821,-8.453 16.292,-16.533 -0.137,-0.027 -0.292,-0.07 -0.477,-0.144 -0.001,0 -1.503,-0.741 -2.225,-1.276 z"
   id="path1210" />
	</g>
</g>
</svg>
